<svg width="850" height="161" viewBox="0 0 850 161" fill="none" xmlns="http://www.w3.org/2000/svg">
<mask id="mask0_3683_162" style="mask-type:luminance" maskUnits="userSpaceOnUse" x="498" y="92" width="6" height="13">
<path d="M498.507 92.8608H503.496V104.772H498.507V92.8608Z" fill="white"/>
</mask>
<g mask="url(#mask0_3683_162)">
<mask id="mask1_3683_162" style="mask-type:luminance" maskUnits="userSpaceOnUse" x="498" y="92" width="7" height="14">
<path d="M504.741 92.4128H498.074V105.746H504.741V92.4128Z" fill="white"/>
</mask>
<g mask="url(#mask1_3683_162)">
<mask id="mask2_3683_162" style="mask-type:luminance" maskUnits="userSpaceOnUse" x="498" y="92" width="6" height="13">
<path d="M498.507 92.8608H503.496V104.772H498.507V92.8608Z" fill="white"/>
</mask>
<g mask="url(#mask2_3683_162)">
<path d="M498.507 92.8608H503.502V104.772H498.507V92.8608Z" fill="#FF5A57"/>
</g>
</g>
</g>
<path d="M93.9915 129.637C98.7676 129.637 103.398 128.918 107.887 127.47C112.387 126.027 115.689 124.637 117.804 123.303L120.971 121.137L134.304 147.783C133.856 148.116 133.247 148.564 132.471 149.116C131.689 149.673 129.887 150.699 127.054 152.199C124.221 153.699 121.189 155.007 117.971 156.116C114.747 157.231 110.523 158.225 105.304 159.116C100.096 160.001 94.7103 160.449 89.1582 160.449C76.3926 160.449 64.2884 157.319 52.8457 151.053C41.4134 144.777 32.1999 136.147 25.1999 125.158C18.2103 114.158 14.7207 102.272 14.7207 89.491C14.7207 79.8399 16.7676 70.5743 20.8665 61.6993C24.9759 52.8139 30.4499 45.2097 37.2832 38.8868C44.1165 32.5535 52.0801 27.5014 61.179 23.7201C70.2884 19.9441 79.6165 18.0535 89.1582 18.0535C98.0436 18.0535 106.231 19.1108 113.721 21.2201C121.221 23.3347 126.523 25.4441 129.637 27.5535L134.304 30.7201L120.971 57.366C120.189 56.6993 119.023 55.8972 117.471 54.9493C115.913 54.0066 112.804 52.7566 108.137 51.1993C103.481 49.6472 98.7676 48.866 93.9915 48.866C86.4342 48.866 79.6582 50.0899 73.6582 52.5326C67.6686 54.9806 62.929 58.1993 59.429 62.1993C55.929 66.1889 53.2624 70.4858 51.429 75.0951C49.6061 79.7097 48.6999 84.3972 48.6999 89.1576C48.6999 99.6056 52.6061 108.965 60.429 117.241C68.2624 125.507 79.4499 129.637 93.9915 129.637Z" fill="#29282E" fill-opacity="0.302"/>
<path d="M150.183 147.804C140.694 139.361 135.954 128.533 135.954 115.324C135.954 102.106 140.892 91.2515 150.767 82.762C160.652 74.262 172.871 70.012 187.412 70.012C201.73 70.012 213.798 74.2932 223.621 82.8453C233.454 91.387 238.371 102.215 238.371 115.324C238.371 128.423 233.563 139.22 223.954 147.72C214.355 156.21 202.173 160.449 187.412 160.449C172.09 160.449 159.683 156.236 150.183 147.804ZM172.996 100.824C169.173 104.606 167.267 109.439 167.267 115.324C167.267 121.199 169.09 126.002 172.746 129.72C176.412 133.444 181.246 135.304 187.246 135.304C193.022 135.304 197.767 133.418 201.475 129.637C205.194 125.861 207.058 121.09 207.058 115.324C207.058 109.439 205.142 104.606 201.308 100.824C197.485 97.0484 192.798 95.1578 187.246 95.1578C181.579 95.1578 176.829 97.0484 172.996 100.824Z" fill="#29282E" fill-opacity="0.302"/>
<path d="M247.701 157.949V72.512H277.18V84.8453H277.514C277.732 84.4026 278.097 83.8453 278.597 83.1786C279.097 82.512 280.17 81.3453 281.826 79.6786C283.493 78.012 285.269 76.512 287.16 75.1786C289.045 73.8453 291.493 72.6526 294.493 71.5953C297.493 70.5432 300.545 70.012 303.66 70.012C306.868 70.012 310.024 70.4599 313.139 71.3453C316.248 72.2359 318.524 73.1265 319.972 74.012L322.305 75.3453L309.972 100.324C306.316 97.2151 301.212 95.6578 294.66 95.6578C291.102 95.6578 288.045 96.439 285.493 97.9911C282.936 99.5484 281.128 101.439 280.076 103.658C279.035 105.882 278.29 107.772 277.847 109.324C277.399 110.882 277.18 112.106 277.18 112.991V157.949H247.701Z" fill="#29282E" fill-opacity="0.302"/>
<path d="M326.471 157.949V72.512H355.95V84.8453H356.283C356.502 84.4026 356.867 83.8453 357.367 83.1786C357.867 82.512 358.939 81.3453 360.596 79.6786C362.262 78.012 364.038 76.512 365.929 75.1786C367.814 73.8453 370.262 72.6526 373.262 71.5953C376.262 70.5432 379.314 70.012 382.429 70.012C385.637 70.012 388.794 70.4599 391.908 71.3453C395.018 72.2359 397.294 73.1265 398.742 74.012L401.075 75.3453L388.742 100.324C385.085 97.2151 379.981 95.6578 373.429 95.6578C369.872 95.6578 366.814 96.439 364.262 97.9911C361.705 99.5484 359.898 101.439 358.846 103.658C357.804 105.882 357.059 107.772 356.617 109.324C356.169 110.882 355.95 112.106 355.95 112.991V157.949H326.471Z" fill="#29282E" fill-opacity="0.302"/>
<path d="M490.677 119.304H428.719C428.719 125.304 430.657 129.752 434.532 132.637C438.417 135.528 442.641 136.97 447.198 136.97C451.974 136.97 455.75 136.335 458.532 135.054C461.308 133.778 464.469 131.252 468.011 127.47L489.344 138.137C480.453 153.012 465.683 160.449 445.032 160.449C432.157 160.449 421.104 156.043 411.886 147.22C402.677 138.387 398.073 127.757 398.073 115.324C398.073 102.882 402.677 92.2203 411.886 83.3453C421.104 74.4599 432.157 70.012 445.032 70.012C458.573 70.012 469.594 73.9286 478.094 81.762C486.594 89.5849 490.844 100.772 490.844 115.324C490.844 117.314 490.787 118.637 490.677 119.304ZM429.552 102.991H462.032C461.365 98.5484 459.615 95.1318 456.782 92.7411C453.948 90.3557 450.308 89.1578 445.865 89.1578C440.974 89.1578 437.084 90.439 434.198 92.9911C431.323 95.5484 429.771 98.8818 429.552 102.991Z" fill="#29282E" fill-opacity="0.302"/>
<path d="M86.6312 122.277C91.4072 122.277 96.0374 121.558 100.527 120.11C105.027 118.667 108.329 117.277 110.444 115.943L113.61 113.777L126.944 140.423C126.496 140.756 125.886 141.204 125.11 141.756C124.329 142.313 122.527 143.339 119.694 144.839C116.86 146.339 113.829 147.646 110.61 148.756C107.386 149.87 103.162 150.865 97.9437 151.756C92.7354 152.641 87.3499 153.089 81.7979 153.089C69.0322 153.089 56.9281 149.959 45.4854 143.693C34.0531 137.417 24.8395 128.787 17.8395 117.798C10.8499 106.798 7.36035 94.9121 7.36035 82.1309C7.36035 72.4798 9.40723 63.2142 13.5062 54.3392C17.6156 45.4538 23.0895 37.8496 29.9229 31.5267C36.7562 25.1934 44.7197 20.1413 53.8187 16.36C62.9281 12.584 72.2562 10.6934 81.7979 10.6934C90.6833 10.6934 98.8708 11.7507 106.36 13.86C113.86 15.9746 119.162 18.084 122.277 20.1934L126.944 23.36L113.61 50.0059C112.829 49.3392 111.662 48.5371 110.11 47.5892C108.553 46.6465 105.444 45.3965 100.777 43.8392C96.1208 42.2871 91.4072 41.5059 86.6312 41.5059C79.0739 41.5059 72.2979 42.7298 66.2979 45.1725C60.3083 47.6204 55.5687 50.8392 52.0687 54.8392C48.5687 58.8288 45.902 63.1257 44.0687 67.735C42.2458 72.3496 41.3395 77.0371 41.3395 81.7975C41.3395 92.2454 45.2458 101.605 53.0687 109.881C60.902 118.146 72.0895 122.277 86.6312 122.277Z" fill="#29282E" fill-opacity="0.502"/>
<path d="M142.824 140.443C133.334 132.001 128.595 121.172 128.595 107.964C128.595 94.7454 133.532 83.8912 143.407 75.4016C153.293 66.9016 165.511 62.6516 180.053 62.6516C194.371 62.6516 206.438 66.9329 216.261 75.4849C226.095 84.0266 231.011 94.8547 231.011 107.964C231.011 121.063 226.204 131.86 216.595 140.36C206.996 148.85 194.813 153.089 180.053 153.089C164.73 153.089 152.324 148.876 142.824 140.443ZM165.636 93.4641C161.813 97.2454 159.907 102.079 159.907 107.964C159.907 113.839 161.73 118.641 165.386 122.36C169.053 126.084 173.886 127.943 179.886 127.943C185.662 127.943 190.407 126.058 194.116 122.277C197.834 118.501 199.699 113.73 199.699 107.964C199.699 102.079 197.782 97.2454 193.949 93.4641C190.126 89.6881 185.438 87.7974 179.886 87.7974C174.22 87.7974 169.47 89.6881 165.636 93.4641Z" fill="#29282E" fill-opacity="0.502"/>
<path d="M240.342 150.589V65.1516H269.821V77.4849H270.154C270.373 77.0422 270.738 76.4849 271.238 75.8183C271.738 75.1516 272.811 73.9849 274.467 72.3183C276.133 70.6516 277.91 69.1516 279.8 67.8183C281.686 66.4849 284.133 65.2922 287.133 64.2349C290.133 63.1829 293.186 62.6516 296.3 62.6516C299.508 62.6516 302.665 63.0995 305.779 63.9849C308.889 64.8756 311.165 65.7662 312.613 66.6516L314.946 67.9849L302.613 92.9641C298.956 89.8547 293.852 88.2974 287.3 88.2974C283.743 88.2974 280.686 89.0787 278.133 90.6308C275.576 92.1881 273.769 94.0787 272.717 96.2974C271.675 98.5214 270.93 100.412 270.488 101.964C270.04 103.521 269.821 104.745 269.821 105.631V150.589H240.342Z" fill="#29282E" fill-opacity="0.502"/>
<path d="M319.11 150.589V65.1516H348.59V77.4849H348.923C349.142 77.0422 349.506 76.4849 350.006 75.8183C350.506 75.1516 351.579 73.9849 353.235 72.3183C354.902 70.6516 356.678 69.1516 358.569 67.8183C360.454 66.4849 362.902 65.2922 365.902 64.2349C368.902 63.1829 371.954 62.6516 375.069 62.6516C378.277 62.6516 381.433 63.0995 384.548 63.9849C387.657 64.8756 389.933 65.7662 391.381 66.6516L393.715 67.9849L381.381 92.9641C377.725 89.8547 372.621 88.2974 366.069 88.2974C362.511 88.2974 359.454 89.0787 356.902 90.6308C354.345 92.1881 352.537 94.0787 351.485 96.2974C350.444 98.5214 349.699 100.412 349.256 101.964C348.808 103.521 348.59 104.745 348.59 105.631V150.589H319.11Z" fill="#29282E" fill-opacity="0.502"/>
<path d="M483.317 111.943H421.359C421.359 117.943 423.296 122.391 427.171 125.277C431.057 128.167 435.281 129.61 439.838 129.61C444.614 129.61 448.39 128.975 451.171 127.693C453.947 126.417 457.109 123.891 460.65 120.11L481.984 130.777C473.093 145.652 458.322 153.089 437.671 153.089C424.796 153.089 413.744 148.683 404.525 139.86C395.317 131.027 390.713 120.396 390.713 107.964C390.713 95.5214 395.317 84.8599 404.525 75.9849C413.744 67.0995 424.796 62.6516 437.671 62.6516C451.213 62.6516 462.234 66.5683 470.734 74.4016C479.234 82.2245 483.484 93.412 483.484 107.964C483.484 109.954 483.426 111.277 483.317 111.943ZM422.192 95.6308H454.671C454.005 91.1881 452.255 87.7714 449.421 85.3808C446.588 82.9954 442.947 81.7974 438.505 81.7974C433.614 81.7974 429.723 83.0787 426.838 85.6308C423.963 88.1881 422.411 91.5214 422.192 95.6308Z" fill="#29282E" fill-opacity="0.502"/>
<path d="M500.176 157.949V14.7202H529.655V157.949H500.176Z" fill="#29282E" fill-opacity="0.302"/>
<path d="M551.285 147.387C543.295 138.668 539.306 127.981 539.306 115.324C539.306 102.658 543.295 91.9443 551.285 83.1786C559.285 74.4026 569.441 70.012 581.764 70.012C593.097 70.012 602.42 73.5693 609.743 80.6786V72.512H639.222V157.949H610.076V148.283H609.743C602.42 156.397 593.097 160.449 581.764 160.449C569.441 160.449 559.285 156.095 551.285 147.387ZM576.347 100.824C572.524 104.606 570.618 109.439 570.618 115.324C570.618 121.199 572.441 126.002 576.097 129.72C579.764 133.444 584.597 135.304 590.597 135.304C596.373 135.304 601.118 133.418 604.826 129.637C608.545 125.861 610.41 121.09 610.41 115.324C610.41 109.439 608.493 104.606 604.66 100.824C600.837 97.0484 596.149 95.1578 590.597 95.1578C584.931 95.1578 580.181 97.0484 576.347 100.824Z" fill="#29282E" fill-opacity="0.302"/>
<path d="M658.862 72.512V40.6995H688.341V72.512H706.341V94.9911H688.341V122.137C688.341 130.028 690.56 133.97 695.008 133.97C696.118 133.97 697.284 133.752 698.508 133.304C699.727 132.861 700.675 132.418 701.341 131.97L702.341 131.304L709.675 155.116C703.341 158.668 696.118 160.449 688.008 160.449C682.466 160.449 677.696 159.476 673.696 157.533C669.696 155.59 666.664 152.981 664.612 149.699C662.555 146.423 661.081 142.986 660.196 139.387C659.305 135.778 658.862 131.918 658.862 127.804V94.9911H646.55V72.512H658.862Z" fill="#29282E" fill-opacity="0.302"/>
<path d="M801.937 119.304H739.979C739.979 125.304 741.916 129.752 745.791 132.637C749.677 135.528 753.901 136.97 758.458 136.97C763.234 136.97 767.01 136.335 769.791 135.054C772.567 133.778 775.729 131.252 779.271 127.47L800.604 138.137C791.713 153.012 776.942 160.449 756.291 160.449C743.416 160.449 732.364 156.043 723.146 147.22C713.937 138.387 709.333 127.757 709.333 115.324C709.333 102.882 713.937 92.2203 723.146 83.3453C732.364 74.4599 743.416 70.012 756.291 70.012C769.833 70.012 780.854 73.9286 789.354 81.762C797.854 89.5849 802.104 100.772 802.104 115.324C802.104 117.314 802.047 118.637 801.937 119.304ZM740.812 102.991H773.291C772.625 98.5484 770.875 95.1318 768.041 92.7411C765.208 90.3557 761.567 89.1578 757.125 89.1578C752.234 89.1578 748.343 90.439 745.458 92.9911C742.583 95.5484 741.031 98.8818 740.812 102.991Z" fill="#29282E" fill-opacity="0.302"/>
<path d="M830.733 122.303C836.066 122.303 840.587 124.168 844.296 127.887C848.014 131.611 849.879 136.137 849.879 141.47C849.879 146.678 848.014 151.147 844.296 154.866C840.587 158.585 836.066 160.449 830.733 160.449C825.509 160.449 821.035 158.585 817.316 154.866C813.608 151.147 811.754 146.678 811.754 141.47C811.754 136.137 813.608 131.611 817.316 127.887C821.035 124.168 825.509 122.303 830.733 122.303Z" fill="#29282E" fill-opacity="0.302"/>
<path d="M492.815 150.589V7.36011H522.295V150.589H492.815Z" fill="#29282E" fill-opacity="0.502"/>
<path d="M543.924 140.027C535.935 131.308 531.945 120.62 531.945 107.964C531.945 95.2974 535.935 84.5839 543.924 75.8183C551.924 67.0422 562.081 62.6516 574.404 62.6516C585.737 62.6516 595.06 66.2089 602.383 73.3183V65.1516H631.862V150.589H602.716V140.922H602.383C595.06 149.037 585.737 153.089 574.404 153.089C562.081 153.089 551.924 148.735 543.924 140.027ZM568.987 93.4641C565.164 97.2454 563.258 102.079 563.258 107.964C563.258 113.839 565.081 118.641 568.737 122.36C572.404 126.084 577.237 127.943 583.237 127.943C589.013 127.943 593.758 126.058 597.466 122.277C601.185 118.501 603.049 113.73 603.049 107.964C603.049 102.079 601.133 97.2454 597.299 93.4641C593.477 89.6881 588.789 87.7974 583.237 87.7974C577.57 87.7974 572.82 89.6881 568.987 93.4641Z" fill="#29282E" fill-opacity="0.502"/>
<path d="M651.502 65.1516V33.3391H680.981V65.1516H698.981V87.6308H680.981V114.777C680.981 122.667 683.2 126.61 687.648 126.61C688.757 126.61 689.924 126.391 691.148 125.943C692.367 125.501 693.314 125.058 693.981 124.61L694.981 123.943L702.314 147.756C695.981 151.308 688.757 153.089 680.648 153.089C675.106 153.089 670.335 152.115 666.335 150.172C662.335 148.23 659.304 145.62 657.252 142.339C655.195 139.063 653.721 135.626 652.835 132.027C651.945 128.417 651.502 124.558 651.502 120.443V87.6308H639.189V65.1516H651.502Z" fill="#29282E" fill-opacity="0.502"/>
<path d="M794.577 111.943H732.618C732.618 117.943 734.556 122.391 738.431 125.277C742.316 128.167 746.54 129.61 751.098 129.61C755.874 129.61 759.65 128.975 762.431 127.693C765.207 126.417 768.368 123.891 771.91 120.11L793.243 130.777C784.353 145.652 769.582 153.089 748.931 153.089C736.056 153.089 725.004 148.683 715.785 139.86C706.577 131.027 701.973 120.396 701.973 107.964C701.973 95.5214 706.577 84.8599 715.785 75.9849C725.004 67.0995 736.056 62.6516 748.931 62.6516C762.473 62.6516 773.493 66.5683 781.993 74.4016C790.493 82.2245 794.743 93.412 794.743 107.964C794.743 109.954 794.686 111.277 794.577 111.943ZM733.452 95.6308H765.931C765.264 91.1881 763.514 87.7714 760.681 85.3808C757.848 82.9954 754.207 81.7974 749.764 81.7974C744.874 81.7974 740.983 83.0787 738.098 85.6308C735.223 88.1881 733.671 91.5214 733.452 95.6308Z" fill="#29282E" fill-opacity="0.502"/>
<path d="M823.373 114.943C828.706 114.943 833.227 116.808 836.935 120.527C840.654 124.251 842.519 128.777 842.519 134.11C842.519 139.318 840.654 143.787 836.935 147.506C833.227 151.225 828.706 153.089 823.373 153.089C818.149 153.089 813.675 151.225 809.956 147.506C806.248 143.787 804.394 139.318 804.394 134.11C804.394 128.777 806.248 124.251 809.956 120.527C813.675 116.808 818.149 114.943 823.373 114.943Z" fill="#29282E" fill-opacity="0.502"/>
<path d="M79.2708 114.917C84.0469 114.917 88.6771 114.198 93.1667 112.75C97.6667 111.307 100.969 109.917 103.083 108.583L106.25 106.417L119.583 133.062C119.135 133.396 118.526 133.844 117.75 134.396C116.969 134.953 115.167 135.979 112.333 137.479C109.5 138.979 106.469 140.286 103.25 141.396C100.026 142.51 95.8021 143.505 90.5833 144.396C85.375 145.281 79.9896 145.729 74.4375 145.729C61.6719 145.729 49.5677 142.599 38.125 136.333C26.6927 130.057 17.4792 121.427 10.4792 110.437C3.48958 99.4374 0 87.552 0 74.7708C0 65.1197 2.04687 55.8541 6.14583 46.9791C10.2552 38.0937 15.7292 30.4895 22.5625 24.1666C29.3958 17.8333 37.3594 12.7812 46.4583 8.99992C55.5677 5.22388 64.8958 3.33325 74.4375 3.33325C83.3229 3.33325 91.5104 4.39054 99 6.49992C106.5 8.6145 111.802 10.7239 114.917 12.8333L119.583 15.9999L106.25 42.6458C105.469 41.9791 104.302 41.177 102.75 40.2291C101.193 39.2864 98.0833 38.0364 93.4167 36.4791C88.7604 34.927 84.0469 34.1458 79.2708 34.1458C71.7135 34.1458 64.9375 35.3697 58.9375 37.8124C52.9479 40.2603 48.2083 43.4791 44.7083 47.4791C41.2083 51.4687 38.5417 55.7655 36.7083 60.3749C34.8854 64.9895 33.9792 69.677 33.9792 74.4374C33.9792 84.8853 37.8854 94.2447 45.7083 102.521C53.5417 110.786 64.7292 114.917 79.2708 114.917Z" fill="white"/>
<path d="M135.464 133.083C125.974 124.64 121.234 113.812 121.234 100.604C121.234 87.3853 126.172 76.5311 136.047 68.0415C145.932 59.5415 158.151 55.2915 172.693 55.2915C187.01 55.2915 199.078 59.5728 208.901 68.1248C218.734 76.6665 223.651 87.4946 223.651 100.604C223.651 113.703 218.844 124.5 209.234 133C199.635 141.489 187.453 145.729 172.693 145.729C157.37 145.729 144.964 141.515 135.464 133.083ZM158.276 86.104C154.453 89.8853 152.547 94.7186 152.547 100.604C152.547 106.479 154.37 111.281 158.026 115C161.693 118.724 166.526 120.583 172.526 120.583C178.302 120.583 183.047 118.698 186.755 114.917C190.474 111.14 192.339 106.37 192.339 100.604C192.339 94.7186 190.422 89.8853 186.589 86.104C182.766 82.328 178.078 80.4373 172.526 80.4373C166.859 80.4373 162.109 82.328 158.276 86.104Z" fill="white"/>
<path d="M232.981 143.229V57.7915H262.461V70.1248H262.794C263.013 69.6821 263.377 69.1248 263.877 68.4582C264.377 67.7915 265.45 66.6248 267.106 64.9582C268.773 63.2915 270.549 61.7915 272.44 60.4582C274.325 59.1248 276.773 57.9321 279.773 56.8748C282.773 55.8228 285.825 55.2915 288.94 55.2915C292.148 55.2915 295.304 55.7394 298.419 56.6248C301.528 57.5155 303.804 58.4061 305.252 59.2915L307.586 60.6248L295.252 85.604C291.596 82.4946 286.492 80.9373 279.94 80.9373C276.382 80.9373 273.325 81.7186 270.773 83.2707C268.216 84.828 266.409 86.7186 265.356 88.9373C264.315 91.1613 263.57 93.0519 263.127 94.604C262.679 96.1613 262.461 97.3853 262.461 98.2707V143.229H232.981Z" fill="white"/>
<path d="M311.75 143.229V57.7915H341.229V70.1248H341.563C341.781 69.6821 342.146 69.1248 342.646 68.4582C343.146 67.7915 344.219 66.6248 345.875 64.9582C347.542 63.2915 349.318 61.7915 351.208 60.4582C353.094 59.1248 355.542 57.9321 358.542 56.8748C361.542 55.8228 364.594 55.2915 367.708 55.2915C370.917 55.2915 374.073 55.7394 377.188 56.6248C380.297 57.5155 382.573 58.4061 384.021 59.2915L386.354 60.6248L374.021 85.604C370.365 82.4946 365.26 80.9373 358.708 80.9373C355.151 80.9373 352.094 81.7186 349.542 83.2707C346.984 84.828 345.177 86.7186 344.125 88.9373C343.083 91.1613 342.339 93.0519 341.896 94.604C341.448 96.1613 341.229 97.3853 341.229 98.2707V143.229H311.75Z" fill="white"/>
<path d="M475.957 104.583H413.998C413.998 110.583 415.936 115.031 419.811 117.917C423.696 120.807 427.92 122.25 432.478 122.25C437.254 122.25 441.03 121.614 443.811 120.333C446.587 119.057 449.748 116.531 453.29 112.75L474.623 123.417C465.733 138.292 450.962 145.729 430.311 145.729C417.436 145.729 406.384 141.323 397.165 132.5C387.957 123.667 383.353 113.036 383.353 100.604C383.353 88.1613 387.957 77.4998 397.165 68.6248C406.384 59.7394 417.436 55.2915 430.311 55.2915C443.853 55.2915 454.873 59.2082 463.373 67.0415C471.873 74.8644 476.123 86.0519 476.123 100.604C476.123 102.594 476.066 103.917 475.957 104.583ZM414.832 88.2707H447.311C446.644 83.828 444.894 80.4113 442.061 78.0207C439.228 75.6353 435.587 74.4373 431.144 74.4373C426.254 74.4373 422.363 75.7186 419.478 78.2707C416.603 80.828 415.05 84.1613 414.832 88.2707Z" fill="white"/>
<path d="M485.455 143.229V0H514.934V143.229H485.455Z" fill="#FF5757"/>
<path d="M536.564 132.667C528.575 123.948 524.585 113.26 524.585 100.604C524.585 87.9373 528.575 77.2238 536.564 68.4582C544.564 59.6821 554.72 55.2915 567.043 55.2915C578.377 55.2915 587.7 58.8488 595.022 65.9582V57.7915H624.502V143.229H595.356V133.562H595.022C587.7 141.677 578.377 145.729 567.043 145.729C554.72 145.729 544.564 141.375 536.564 132.667ZM561.627 86.104C557.804 89.8853 555.897 94.7186 555.897 100.604C555.897 106.479 557.72 111.281 561.377 115C565.043 118.724 569.877 120.583 575.877 120.583C581.653 120.583 586.397 118.698 590.106 114.917C593.825 111.14 595.689 106.37 595.689 100.604C595.689 94.7186 593.772 89.8853 589.939 86.104C586.116 82.328 581.429 80.4373 575.877 80.4373C570.21 80.4373 565.46 82.328 561.627 86.104Z" fill="#FF5757"/>
<path d="M644.143 57.7915V25.979H673.622V57.7915H691.622V80.2707H673.622V107.417C673.622 115.307 675.84 119.25 680.288 119.25C681.398 119.25 682.564 119.031 683.788 118.583C685.007 118.14 685.955 117.698 686.622 117.25L687.622 116.583L694.955 140.396C688.622 143.948 681.398 145.729 673.288 145.729C667.747 145.729 662.976 144.755 658.976 142.812C654.976 140.87 651.945 138.26 649.893 134.979C647.835 131.703 646.361 128.265 645.476 124.667C644.585 121.057 644.143 117.198 644.143 113.083V80.2707H631.83V57.7915H644.143Z" fill="#FF5757"/>
<path d="M787.216 104.583H725.258C725.258 110.583 727.196 115.031 731.071 117.917C734.956 120.807 739.18 122.25 743.737 122.25C748.513 122.25 752.289 121.614 755.071 120.333C757.847 119.057 761.008 116.531 764.55 112.75L785.883 123.417C776.993 138.292 762.222 145.729 741.571 145.729C728.696 145.729 717.644 141.323 708.425 132.5C699.216 123.667 694.612 113.036 694.612 100.604C694.612 88.1613 699.216 77.4998 708.425 68.6248C717.644 59.7394 728.696 55.2915 741.571 55.2915C755.112 55.2915 766.133 59.2082 774.633 67.0415C783.133 74.8644 787.383 86.0519 787.383 100.604C787.383 102.594 787.326 103.917 787.216 104.583ZM726.091 88.2707H758.571C757.904 83.828 756.154 80.4113 753.321 78.0207C750.487 75.6353 746.847 74.4373 742.404 74.4373C737.513 74.4373 733.623 75.7186 730.737 78.2707C727.862 80.828 726.31 84.1613 726.091 88.2707Z" fill="#FF5757"/>
<path d="M816.013 107.583C821.347 107.583 825.868 109.448 829.576 113.167C833.295 116.891 835.159 121.417 835.159 126.75C835.159 131.958 833.295 136.427 829.576 140.146C825.868 143.865 821.347 145.729 816.013 145.729C810.789 145.729 806.315 143.865 802.597 140.146C798.888 136.427 797.034 131.958 797.034 126.75C797.034 121.417 798.888 116.891 802.597 113.167C806.315 109.448 810.789 107.583 816.013 107.583Z" fill="#FF5757"/>
</svg>
