<svg xmlns="http://www.w3.org/2000/svg" xmlns:xlink="http://www.w3.org/1999/xlink" width="1080" zoomAndPan="magnify" viewBox="0 0 810 809.999993" height="1080" preserveAspectRatio="xMidYMid meet" version="1.0"><defs><g/><clipPath id="89feea2c4e"><path d="M 478.121094 418.121094 L 482.808594 418.121094 L 482.808594 429.308594 L 478.121094 429.308594 Z M 478.121094 418.121094 " clip-rule="nonzero"/></clipPath><clipPath id="bc5bfd8e3b"><path d="M 0.121094 0.121094 L 4.808594 0.121094 L 4.808594 11.308594 L 0.121094 11.308594 Z M 0.121094 0.121094 " clip-rule="nonzero"/></clipPath><clipPath id="d2977e5979"><rect x="0" width="5" y="0" height="12"/></clipPath><clipPath id="b0a609ebec"><rect x="0" width="805" y="0" height="196"/></clipPath></defs><g clip-path="url(#89feea2c4e)"><g transform="matrix(1, 0, 0, 1, 478, 418)"><g clip-path="url(#d2977e5979)"><g clip-path="url(#bc5bfd8e3b)"><path fill="#ff5a57" d="M 0.121094 0.121094 L 4.808594 0.121094 L 4.808594 11.308594 L 0.121094 11.308594 Z M 0.121094 0.121094 " fill-opacity="1" fill-rule="nonzero"/></g></g></g></g><g transform="matrix(1, 0, 0, 1, 5, 325)"><g clip-path="url(#b0a609ebec)"><g fill="#29282e" fill-opacity="0.302"><g transform="translate(15.075149, 154.261246)"><g><path d="M 78.0625 -26.59375 C 82.550781 -26.59375 86.90625 -27.269531 91.125 -28.625 C 95.34375 -29.976562 98.445312 -31.28125 100.4375 -32.53125 L 103.40625 -34.578125 L 115.921875 -9.546875 C 115.503906 -9.234375 114.929688 -8.816406 114.203125 -8.296875 C 113.472656 -7.773438 111.773438 -6.804688 109.109375 -5.390625 C 106.453125 -3.984375 103.609375 -2.757812 100.578125 -1.71875 C 97.554688 -0.675781 93.59375 0.257812 88.6875 1.09375 C 83.789062 1.925781 78.738281 2.34375 73.53125 2.34375 C 61.53125 2.34375 50.160156 -0.597656 39.421875 -6.484375 C 28.679688 -12.378906 20.023438 -20.488281 13.453125 -30.8125 C 6.878906 -41.144531 3.59375 -52.304688 3.59375 -64.296875 C 3.59375 -73.367188 5.519531 -82.078125 9.375 -90.421875 C 13.238281 -98.765625 18.378906 -105.90625 24.796875 -111.84375 C 31.210938 -117.789062 38.695312 -122.535156 47.25 -126.078125 C 55.800781 -129.628906 64.5625 -131.40625 73.53125 -131.40625 C 81.875 -131.40625 89.5625 -130.414062 96.59375 -128.4375 C 103.632812 -126.457031 108.617188 -124.472656 111.546875 -122.484375 L 115.921875 -119.515625 L 103.40625 -94.484375 C 102.675781 -95.109375 101.582031 -95.863281 100.125 -96.75 C 98.664062 -97.644531 95.742188 -98.820312 91.359375 -100.28125 C 86.984375 -101.738281 82.550781 -102.46875 78.0625 -102.46875 C 70.96875 -102.46875 64.601562 -101.316406 58.96875 -99.015625 C 53.34375 -96.722656 48.882812 -93.695312 45.59375 -89.9375 C 42.3125 -86.1875 39.8125 -82.144531 38.09375 -77.8125 C 36.375 -73.488281 35.515625 -69.085938 35.515625 -64.609375 C 35.515625 -54.804688 39.1875 -46.019531 46.53125 -38.25 C 53.882812 -30.476562 64.394531 -26.59375 78.0625 -26.59375 Z M 78.0625 -26.59375 "/></g></g></g><g fill="#29282e" fill-opacity="0.302"><g transform="translate(128.956445, 154.261246)"><g><path d="M 16.96875 -9.546875 C 8.050781 -17.472656 3.59375 -27.640625 3.59375 -40.046875 C 3.59375 -52.453125 8.234375 -62.644531 17.515625 -70.625 C 26.796875 -78.601562 38.269531 -82.59375 51.9375 -82.59375 C 65.394531 -82.59375 76.738281 -78.578125 85.96875 -70.546875 C 95.195312 -62.515625 99.8125 -52.347656 99.8125 -40.046875 C 99.8125 -27.742188 95.300781 -17.601562 86.28125 -9.625 C 77.257812 -1.644531 65.8125 2.34375 51.9375 2.34375 C 37.539062 2.34375 25.882812 -1.617188 16.96875 -9.546875 Z M 38.40625 -53.65625 C 34.8125 -50.113281 33.015625 -45.578125 33.015625 -40.046875 C 33.015625 -34.515625 34.734375 -30.003906 38.171875 -26.515625 C 41.609375 -23.023438 46.144531 -21.28125 51.78125 -21.28125 C 57.207031 -21.28125 61.664062 -23.050781 65.15625 -26.59375 C 68.644531 -30.132812 70.390625 -34.617188 70.390625 -40.046875 C 70.390625 -45.578125 68.59375 -50.113281 65 -53.65625 C 61.40625 -57.207031 57 -58.984375 51.78125 -58.984375 C 46.457031 -58.984375 42 -57.207031 38.40625 -53.65625 Z M 38.40625 -53.65625 "/></g></g></g><g fill="#29282e" fill-opacity="0.302"><g transform="translate(228.133228, 154.261246)"><g><path d="M 9.390625 0 L 9.390625 -80.25 L 37.078125 -80.25 L 37.078125 -68.671875 L 37.390625 -68.671875 C 37.597656 -69.085938 37.9375 -69.609375 38.40625 -70.234375 C 38.875 -70.859375 39.890625 -71.953125 41.453125 -73.515625 C 43.015625 -75.085938 44.679688 -76.5 46.453125 -77.75 C 48.234375 -79 50.53125 -80.117188 53.34375 -81.109375 C 56.15625 -82.097656 59.023438 -82.59375 61.953125 -82.59375 C 64.972656 -82.59375 67.941406 -82.175781 70.859375 -81.34375 C 73.785156 -80.507812 75.925781 -79.675781 77.28125 -78.84375 L 79.46875 -77.59375 L 67.890625 -54.125 C 64.453125 -57.039062 59.65625 -58.5 53.5 -58.5 C 50.164062 -58.5 47.296875 -57.769531 44.890625 -56.3125 C 42.492188 -54.851562 40.800781 -53.082031 39.8125 -51 C 38.820312 -48.914062 38.117188 -47.140625 37.703125 -45.671875 C 37.285156 -44.210938 37.078125 -43.066406 37.078125 -42.234375 L 37.078125 0 Z M 9.390625 0 "/></g></g></g><g fill="#29282e" fill-opacity="0.302"><g transform="translate(302.124714, 154.261246)"><g><path d="M 9.390625 0 L 9.390625 -80.25 L 37.078125 -80.25 L 37.078125 -68.671875 L 37.390625 -68.671875 C 37.597656 -69.085938 37.9375 -69.609375 38.40625 -70.234375 C 38.875 -70.859375 39.890625 -71.953125 41.453125 -73.515625 C 43.015625 -75.085938 44.679688 -76.5 46.453125 -77.75 C 48.234375 -79 50.53125 -80.117188 53.34375 -81.109375 C 56.15625 -82.097656 59.023438 -82.59375 61.953125 -82.59375 C 64.972656 -82.59375 67.941406 -82.175781 70.859375 -81.34375 C 73.785156 -80.507812 75.925781 -79.675781 77.28125 -78.84375 L 79.46875 -77.59375 L 67.890625 -54.125 C 64.453125 -57.039062 59.65625 -58.5 53.5 -58.5 C 50.164062 -58.5 47.296875 -57.769531 44.890625 -56.3125 C 42.492188 -54.851562 40.800781 -53.082031 39.8125 -51 C 38.820312 -48.914062 38.117188 -47.140625 37.703125 -45.671875 C 37.285156 -44.210938 37.078125 -43.066406 37.078125 -42.234375 L 37.078125 0 Z M 9.390625 0 "/></g></g></g><g fill="#29282e" fill-opacity="0.302"><g transform="translate(375.177526, 154.261246)"><g><path d="M 90.578125 -36.296875 L 32.375 -36.296875 C 32.375 -30.660156 34.195312 -26.488281 37.84375 -23.78125 C 41.5 -21.070312 45.46875 -19.71875 49.75 -19.71875 C 54.226562 -19.71875 57.769531 -20.316406 60.375 -21.515625 C 62.988281 -22.710938 65.960938 -25.082031 69.296875 -28.625 L 89.328125 -18.609375 C 80.984375 -4.640625 67.113281 2.34375 47.71875 2.34375 C 35.613281 2.34375 25.234375 -1.800781 16.578125 -10.09375 C 7.921875 -18.382812 3.59375 -28.367188 3.59375 -40.046875 C 3.59375 -51.722656 7.921875 -61.734375 16.578125 -70.078125 C 25.234375 -78.421875 35.613281 -82.59375 47.71875 -82.59375 C 60.4375 -82.59375 70.785156 -78.914062 78.765625 -71.5625 C 86.742188 -64.21875 90.734375 -53.710938 90.734375 -40.046875 C 90.734375 -38.171875 90.679688 -36.921875 90.578125 -36.296875 Z M 33.171875 -51.625 L 63.671875 -51.625 C 63.046875 -55.789062 61.398438 -58.992188 58.734375 -61.234375 C 56.078125 -63.484375 52.664062 -64.609375 48.5 -64.609375 C 43.90625 -64.609375 40.253906 -63.40625 37.546875 -61 C 34.835938 -58.601562 33.378906 -55.476562 33.171875 -51.625 Z M 33.171875 -51.625 "/></g></g></g><g fill="#29282e" fill-opacity="0.502"><g transform="translate(8.161385, 147.347477)"><g><path d="M 78.0625 -26.59375 C 82.550781 -26.59375 86.90625 -27.269531 91.125 -28.625 C 95.34375 -29.976562 98.445312 -31.28125 100.4375 -32.53125 L 103.40625 -34.578125 L 115.921875 -9.546875 C 115.503906 -9.234375 114.929688 -8.816406 114.203125 -8.296875 C 113.472656 -7.773438 111.773438 -6.804688 109.109375 -5.390625 C 106.453125 -3.984375 103.609375 -2.757812 100.578125 -1.71875 C 97.554688 -0.675781 93.59375 0.257812 88.6875 1.09375 C 83.789062 1.925781 78.738281 2.34375 73.53125 2.34375 C 61.53125 2.34375 50.160156 -0.597656 39.421875 -6.484375 C 28.679688 -12.378906 20.023438 -20.488281 13.453125 -30.8125 C 6.878906 -41.144531 3.59375 -52.304688 3.59375 -64.296875 C 3.59375 -73.367188 5.519531 -82.078125 9.375 -90.421875 C 13.238281 -98.765625 18.378906 -105.90625 24.796875 -111.84375 C 31.210938 -117.789062 38.695312 -122.535156 47.25 -126.078125 C 55.800781 -129.628906 64.5625 -131.40625 73.53125 -131.40625 C 81.875 -131.40625 89.5625 -130.414062 96.59375 -128.4375 C 103.632812 -126.457031 108.617188 -124.472656 111.546875 -122.484375 L 115.921875 -119.515625 L 103.40625 -94.484375 C 102.675781 -95.109375 101.582031 -95.863281 100.125 -96.75 C 98.664062 -97.644531 95.742188 -98.820312 91.359375 -100.28125 C 86.984375 -101.738281 82.550781 -102.46875 78.0625 -102.46875 C 70.96875 -102.46875 64.601562 -101.316406 58.96875 -99.015625 C 53.34375 -96.722656 48.882812 -93.695312 45.59375 -89.9375 C 42.3125 -86.1875 39.8125 -82.144531 38.09375 -77.8125 C 36.375 -73.488281 35.515625 -69.085938 35.515625 -64.609375 C 35.515625 -54.804688 39.1875 -46.019531 46.53125 -38.25 C 53.882812 -30.476562 64.394531 -26.59375 78.0625 -26.59375 Z M 78.0625 -26.59375 "/></g></g></g><g fill="#29282e" fill-opacity="0.502"><g transform="translate(122.042681, 147.347477)"><g><path d="M 16.96875 -9.546875 C 8.050781 -17.472656 3.59375 -27.640625 3.59375 -40.046875 C 3.59375 -52.453125 8.234375 -62.644531 17.515625 -70.625 C 26.796875 -78.601562 38.269531 -82.59375 51.9375 -82.59375 C 65.394531 -82.59375 76.738281 -78.578125 85.96875 -70.546875 C 95.195312 -62.515625 99.8125 -52.347656 99.8125 -40.046875 C 99.8125 -27.742188 95.300781 -17.601562 86.28125 -9.625 C 77.257812 -1.644531 65.8125 2.34375 51.9375 2.34375 C 37.539062 2.34375 25.882812 -1.617188 16.96875 -9.546875 Z M 38.40625 -53.65625 C 34.8125 -50.113281 33.015625 -45.578125 33.015625 -40.046875 C 33.015625 -34.515625 34.734375 -30.003906 38.171875 -26.515625 C 41.609375 -23.023438 46.144531 -21.28125 51.78125 -21.28125 C 57.207031 -21.28125 61.664062 -23.050781 65.15625 -26.59375 C 68.644531 -30.132812 70.390625 -34.617188 70.390625 -40.046875 C 70.390625 -45.578125 68.59375 -50.113281 65 -53.65625 C 61.40625 -57.207031 57 -58.984375 51.78125 -58.984375 C 46.457031 -58.984375 42 -57.207031 38.40625 -53.65625 Z M 38.40625 -53.65625 "/></g></g></g><g fill="#29282e" fill-opacity="0.502"><g transform="translate(221.219464, 147.347477)"><g><path d="M 9.390625 0 L 9.390625 -80.25 L 37.078125 -80.25 L 37.078125 -68.671875 L 37.390625 -68.671875 C 37.597656 -69.085938 37.9375 -69.609375 38.40625 -70.234375 C 38.875 -70.859375 39.890625 -71.953125 41.453125 -73.515625 C 43.015625 -75.085938 44.679688 -76.5 46.453125 -77.75 C 48.234375 -79 50.53125 -80.117188 53.34375 -81.109375 C 56.15625 -82.097656 59.023438 -82.59375 61.953125 -82.59375 C 64.972656 -82.59375 67.941406 -82.175781 70.859375 -81.34375 C 73.785156 -80.507812 75.925781 -79.675781 77.28125 -78.84375 L 79.46875 -77.59375 L 67.890625 -54.125 C 64.453125 -57.039062 59.65625 -58.5 53.5 -58.5 C 50.164062 -58.5 47.296875 -57.769531 44.890625 -56.3125 C 42.492188 -54.851562 40.800781 -53.082031 39.8125 -51 C 38.820312 -48.914062 38.117188 -47.140625 37.703125 -45.671875 C 37.285156 -44.210938 37.078125 -43.066406 37.078125 -42.234375 L 37.078125 0 Z M 9.390625 0 "/></g></g></g><g fill="#29282e" fill-opacity="0.502"><g transform="translate(295.210949, 147.347477)"><g><path d="M 9.390625 0 L 9.390625 -80.25 L 37.078125 -80.25 L 37.078125 -68.671875 L 37.390625 -68.671875 C 37.597656 -69.085938 37.9375 -69.609375 38.40625 -70.234375 C 38.875 -70.859375 39.890625 -71.953125 41.453125 -73.515625 C 43.015625 -75.085938 44.679688 -76.5 46.453125 -77.75 C 48.234375 -79 50.53125 -80.117188 53.34375 -81.109375 C 56.15625 -82.097656 59.023438 -82.59375 61.953125 -82.59375 C 64.972656 -82.59375 67.941406 -82.175781 70.859375 -81.34375 C 73.785156 -80.507812 75.925781 -79.675781 77.28125 -78.84375 L 79.46875 -77.59375 L 67.890625 -54.125 C 64.453125 -57.039062 59.65625 -58.5 53.5 -58.5 C 50.164062 -58.5 47.296875 -57.769531 44.890625 -56.3125 C 42.492188 -54.851562 40.800781 -53.082031 39.8125 -51 C 38.820312 -48.914062 38.117188 -47.140625 37.703125 -45.671875 C 37.285156 -44.210938 37.078125 -43.066406 37.078125 -42.234375 L 37.078125 0 Z M 9.390625 0 "/></g></g></g><g fill="#29282e" fill-opacity="0.502"><g transform="translate(368.263762, 147.347477)"><g><path d="M 90.578125 -36.296875 L 32.375 -36.296875 C 32.375 -30.660156 34.195312 -26.488281 37.84375 -23.78125 C 41.5 -21.070312 45.46875 -19.71875 49.75 -19.71875 C 54.226562 -19.71875 57.769531 -20.316406 60.375 -21.515625 C 62.988281 -22.710938 65.960938 -25.082031 69.296875 -28.625 L 89.328125 -18.609375 C 80.984375 -4.640625 67.113281 2.34375 47.71875 2.34375 C 35.613281 2.34375 25.234375 -1.800781 16.578125 -10.09375 C 7.921875 -18.382812 3.59375 -28.367188 3.59375 -40.046875 C 3.59375 -51.722656 7.921875 -61.734375 16.578125 -70.078125 C 25.234375 -78.421875 35.613281 -82.59375 47.71875 -82.59375 C 60.4375 -82.59375 70.785156 -78.914062 78.765625 -71.5625 C 86.742188 -64.21875 90.734375 -53.710938 90.734375 -40.046875 C 90.734375 -38.171875 90.679688 -36.921875 90.578125 -36.296875 Z M 33.171875 -51.625 L 63.671875 -51.625 C 63.046875 -55.789062 61.398438 -58.992188 58.734375 -61.234375 C 56.078125 -63.484375 52.664062 -64.609375 48.5 -64.609375 C 43.90625 -64.609375 40.253906 -63.40625 37.546875 -61 C 34.835938 -58.601562 33.378906 -55.476562 33.171875 -51.625 Z M 33.171875 -51.625 "/></g></g></g><g fill="#29282e" fill-opacity="0.302"><g transform="translate(465.294857, 154.261246)"><g><path d="M 9.390625 0 L 9.390625 -134.53125 L 37.078125 -134.53125 L 37.078125 0 Z M 9.390625 0 "/></g></g></g><g fill="#29282e" fill-opacity="0.302"><g transform="translate(507.84376, 154.261246)"><g><path d="M 14.859375 -9.9375 C 7.347656 -18.125 3.59375 -28.160156 3.59375 -40.046875 C 3.59375 -51.929688 7.347656 -61.992188 14.859375 -70.234375 C 22.367188 -78.472656 31.910156 -82.59375 43.484375 -82.59375 C 54.128906 -82.59375 62.890625 -79.257812 69.765625 -72.59375 L 69.765625 -80.25 L 97.453125 -80.25 L 97.453125 0 L 70.078125 0 L 70.078125 -9.078125 L 69.765625 -9.078125 C 62.890625 -1.460938 54.128906 2.34375 43.484375 2.34375 C 31.910156 2.34375 22.367188 -1.75 14.859375 -9.9375 Z M 38.40625 -53.65625 C 34.8125 -50.113281 33.015625 -45.578125 33.015625 -40.046875 C 33.015625 -34.515625 34.734375 -30.003906 38.171875 -26.515625 C 41.609375 -23.023438 46.144531 -21.28125 51.78125 -21.28125 C 57.207031 -21.28125 61.664062 -23.050781 65.15625 -26.59375 C 68.644531 -30.132812 70.390625 -34.617188 70.390625 -40.046875 C 70.390625 -45.578125 68.59375 -50.113281 65 -53.65625 C 61.40625 -57.207031 57 -58.984375 51.78125 -58.984375 C 46.457031 -58.984375 42 -57.207031 38.40625 -53.65625 Z M 38.40625 -53.65625 "/></g></g></g><g fill="#29282e" fill-opacity="0.302"><g transform="translate(609.67982, 154.261246)"><g><path d="M 14.078125 -80.25 L 14.078125 -110.125 L 41.765625 -110.125 L 41.765625 -80.25 L 58.65625 -80.25 L 58.65625 -59.140625 L 41.765625 -59.140625 L 41.765625 -33.640625 C 41.765625 -26.234375 43.851562 -22.53125 48.03125 -22.53125 C 49.070312 -22.53125 50.164062 -22.738281 51.3125 -23.15625 C 52.457031 -23.570312 53.34375 -23.988281 53.96875 -24.40625 L 54.90625 -25.03125 L 61.796875 -2.65625 C 55.847656 0.675781 49.066406 2.34375 41.453125 2.34375 C 36.242188 2.34375 31.757812 1.429688 28 -0.390625 C 24.25 -2.210938 21.40625 -4.660156 19.46875 -7.734375 C 17.539062 -10.816406 16.160156 -14.050781 15.328125 -17.4375 C 14.492188 -20.832031 14.078125 -24.457031 14.078125 -28.3125 L 14.078125 -59.140625 L 2.5 -59.140625 L 2.5 -80.25 Z M 14.078125 -80.25 "/></g></g></g><g fill="#29282e" fill-opacity="0.302"><g transform="translate(667.558927, 154.261246)"><g><path d="M 90.578125 -36.296875 L 32.375 -36.296875 C 32.375 -30.660156 34.195312 -26.488281 37.84375 -23.78125 C 41.5 -21.070312 45.46875 -19.71875 49.75 -19.71875 C 54.226562 -19.71875 57.769531 -20.316406 60.375 -21.515625 C 62.988281 -22.710938 65.960938 -25.082031 69.296875 -28.625 L 89.328125 -18.609375 C 80.984375 -4.640625 67.113281 2.34375 47.71875 2.34375 C 35.613281 2.34375 25.234375 -1.800781 16.578125 -10.09375 C 7.921875 -18.382812 3.59375 -28.367188 3.59375 -40.046875 C 3.59375 -51.722656 7.921875 -61.734375 16.578125 -70.078125 C 25.234375 -78.421875 35.613281 -82.59375 47.71875 -82.59375 C 60.4375 -82.59375 70.785156 -78.914062 78.765625 -71.5625 C 86.742188 -64.21875 90.734375 -53.710938 90.734375 -40.046875 C 90.734375 -38.171875 90.679688 -36.921875 90.578125 -36.296875 Z M 33.171875 -51.625 L 63.671875 -51.625 C 63.046875 -55.789062 61.398438 -58.992188 58.734375 -61.234375 C 56.078125 -63.484375 52.664062 -64.609375 48.5 -64.609375 C 43.90625 -64.609375 40.253906 -63.40625 37.546875 -61 C 34.835938 -58.601562 33.378906 -55.476562 33.171875 -51.625 Z M 33.171875 -51.625 "/></g></g></g><g fill="#29282e" fill-opacity="0.302"><g transform="translate(757.975602, 154.261246)"><g><path d="M 27.21875 -33.484375 C 32.226562 -33.484375 36.476562 -31.734375 39.96875 -28.234375 C 43.457031 -24.742188 45.203125 -20.492188 45.203125 -15.484375 C 45.203125 -10.585938 43.457031 -6.390625 39.96875 -2.890625 C 36.476562 0.597656 32.226562 2.34375 27.21875 2.34375 C 22.320312 2.34375 18.125 0.597656 14.625 -2.890625 C 11.132812 -6.390625 9.390625 -10.585938 9.390625 -15.484375 C 9.390625 -20.492188 11.132812 -24.742188 14.625 -28.234375 C 18.125 -31.734375 22.320312 -33.484375 27.21875 -33.484375 Z M 27.21875 -33.484375 "/></g></g></g><g fill="#29282e" fill-opacity="0.502"><g transform="translate(458.381093, 147.347477)"><g><path d="M 9.390625 0 L 9.390625 -134.53125 L 37.078125 -134.53125 L 37.078125 0 Z M 9.390625 0 "/></g></g></g><g fill="#29282e" fill-opacity="0.502"><g transform="translate(500.929995, 147.347477)"><g><path d="M 14.859375 -9.9375 C 7.347656 -18.125 3.59375 -28.160156 3.59375 -40.046875 C 3.59375 -51.929688 7.347656 -61.992188 14.859375 -70.234375 C 22.367188 -78.472656 31.910156 -82.59375 43.484375 -82.59375 C 54.128906 -82.59375 62.890625 -79.257812 69.765625 -72.59375 L 69.765625 -80.25 L 97.453125 -80.25 L 97.453125 0 L 70.078125 0 L 70.078125 -9.078125 L 69.765625 -9.078125 C 62.890625 -1.460938 54.128906 2.34375 43.484375 2.34375 C 31.910156 2.34375 22.367188 -1.75 14.859375 -9.9375 Z M 38.40625 -53.65625 C 34.8125 -50.113281 33.015625 -45.578125 33.015625 -40.046875 C 33.015625 -34.515625 34.734375 -30.003906 38.171875 -26.515625 C 41.609375 -23.023438 46.144531 -21.28125 51.78125 -21.28125 C 57.207031 -21.28125 61.664062 -23.050781 65.15625 -26.59375 C 68.644531 -30.132812 70.390625 -34.617188 70.390625 -40.046875 C 70.390625 -45.578125 68.59375 -50.113281 65 -53.65625 C 61.40625 -57.207031 57 -58.984375 51.78125 -58.984375 C 46.457031 -58.984375 42 -57.207031 38.40625 -53.65625 Z M 38.40625 -53.65625 "/></g></g></g><g fill="#29282e" fill-opacity="0.502"><g transform="translate(602.766056, 147.347477)"><g><path d="M 14.078125 -80.25 L 14.078125 -110.125 L 41.765625 -110.125 L 41.765625 -80.25 L 58.65625 -80.25 L 58.65625 -59.140625 L 41.765625 -59.140625 L 41.765625 -33.640625 C 41.765625 -26.234375 43.851562 -22.53125 48.03125 -22.53125 C 49.070312 -22.53125 50.164062 -22.738281 51.3125 -23.15625 C 52.457031 -23.570312 53.34375 -23.988281 53.96875 -24.40625 L 54.90625 -25.03125 L 61.796875 -2.65625 C 55.847656 0.675781 49.066406 2.34375 41.453125 2.34375 C 36.242188 2.34375 31.757812 1.429688 28 -0.390625 C 24.25 -2.210938 21.40625 -4.660156 19.46875 -7.734375 C 17.539062 -10.816406 16.160156 -14.050781 15.328125 -17.4375 C 14.492188 -20.832031 14.078125 -24.457031 14.078125 -28.3125 L 14.078125 -59.140625 L 2.5 -59.140625 L 2.5 -80.25 Z M 14.078125 -80.25 "/></g></g></g><g fill="#29282e" fill-opacity="0.502"><g transform="translate(660.645163, 147.347477)"><g><path d="M 90.578125 -36.296875 L 32.375 -36.296875 C 32.375 -30.660156 34.195312 -26.488281 37.84375 -23.78125 C 41.5 -21.070312 45.46875 -19.71875 49.75 -19.71875 C 54.226562 -19.71875 57.769531 -20.316406 60.375 -21.515625 C 62.988281 -22.710938 65.960938 -25.082031 69.296875 -28.625 L 89.328125 -18.609375 C 80.984375 -4.640625 67.113281 2.34375 47.71875 2.34375 C 35.613281 2.34375 25.234375 -1.800781 16.578125 -10.09375 C 7.921875 -18.382812 3.59375 -28.367188 3.59375 -40.046875 C 3.59375 -51.722656 7.921875 -61.734375 16.578125 -70.078125 C 25.234375 -78.421875 35.613281 -82.59375 47.71875 -82.59375 C 60.4375 -82.59375 70.785156 -78.914062 78.765625 -71.5625 C 86.742188 -64.21875 90.734375 -53.710938 90.734375 -40.046875 C 90.734375 -38.171875 90.679688 -36.921875 90.578125 -36.296875 Z M 33.171875 -51.625 L 63.671875 -51.625 C 63.046875 -55.789062 61.398438 -58.992188 58.734375 -61.234375 C 56.078125 -63.484375 52.664062 -64.609375 48.5 -64.609375 C 43.90625 -64.609375 40.253906 -63.40625 37.546875 -61 C 34.835938 -58.601562 33.378906 -55.476562 33.171875 -51.625 Z M 33.171875 -51.625 "/></g></g></g><g fill="#29282e" fill-opacity="0.502"><g transform="translate(751.061838, 147.347477)"><g><path d="M 27.21875 -33.484375 C 32.226562 -33.484375 36.476562 -31.734375 39.96875 -28.234375 C 43.457031 -24.742188 45.203125 -20.492188 45.203125 -15.484375 C 45.203125 -10.585938 43.457031 -6.390625 39.96875 -2.890625 C 36.476562 0.597656 32.226562 2.34375 27.21875 2.34375 C 22.320312 2.34375 18.125 0.597656 14.625 -2.890625 C 11.132812 -6.390625 9.390625 -10.585938 9.390625 -15.484375 C 9.390625 -20.492188 11.132812 -24.742188 14.625 -28.234375 C 18.125 -31.734375 22.320312 -33.484375 27.21875 -33.484375 Z M 27.21875 -33.484375 "/></g></g></g><g fill="#ffffff" fill-opacity="1"><g transform="translate(1.24762, 140.433708)"><g><path d="M 78.0625 -26.59375 C 82.550781 -26.59375 86.90625 -27.269531 91.125 -28.625 C 95.34375 -29.976562 98.445312 -31.28125 100.4375 -32.53125 L 103.40625 -34.578125 L 115.921875 -9.546875 C 115.503906 -9.234375 114.929688 -8.816406 114.203125 -8.296875 C 113.472656 -7.773438 111.773438 -6.804688 109.109375 -5.390625 C 106.453125 -3.984375 103.609375 -2.757812 100.578125 -1.71875 C 97.554688 -0.675781 93.59375 0.257812 88.6875 1.09375 C 83.789062 1.925781 78.738281 2.34375 73.53125 2.34375 C 61.53125 2.34375 50.160156 -0.597656 39.421875 -6.484375 C 28.679688 -12.378906 20.023438 -20.488281 13.453125 -30.8125 C 6.878906 -41.144531 3.59375 -52.304688 3.59375 -64.296875 C 3.59375 -73.367188 5.519531 -82.078125 9.375 -90.421875 C 13.238281 -98.765625 18.378906 -105.90625 24.796875 -111.84375 C 31.210938 -117.789062 38.695312 -122.535156 47.25 -126.078125 C 55.800781 -129.628906 64.5625 -131.40625 73.53125 -131.40625 C 81.875 -131.40625 89.5625 -130.414062 96.59375 -128.4375 C 103.632812 -126.457031 108.617188 -124.472656 111.546875 -122.484375 L 115.921875 -119.515625 L 103.40625 -94.484375 C 102.675781 -95.109375 101.582031 -95.863281 100.125 -96.75 C 98.664062 -97.644531 95.742188 -98.820312 91.359375 -100.28125 C 86.984375 -101.738281 82.550781 -102.46875 78.0625 -102.46875 C 70.96875 -102.46875 64.601562 -101.316406 58.96875 -99.015625 C 53.34375 -96.722656 48.882812 -93.695312 45.59375 -89.9375 C 42.3125 -86.1875 39.8125 -82.144531 38.09375 -77.8125 C 36.375 -73.488281 35.515625 -69.085938 35.515625 -64.609375 C 35.515625 -54.804688 39.1875 -46.019531 46.53125 -38.25 C 53.882812 -30.476562 64.394531 -26.59375 78.0625 -26.59375 Z M 78.0625 -26.59375 "/></g></g></g><g fill="#ffffff" fill-opacity="1"><g transform="translate(115.128917, 140.433708)"><g><path d="M 16.96875 -9.546875 C 8.050781 -17.472656 3.59375 -27.640625 3.59375 -40.046875 C 3.59375 -52.453125 8.234375 -62.644531 17.515625 -70.625 C 26.796875 -78.601562 38.269531 -82.59375 51.9375 -82.59375 C 65.394531 -82.59375 76.738281 -78.578125 85.96875 -70.546875 C 95.195312 -62.515625 99.8125 -52.347656 99.8125 -40.046875 C 99.8125 -27.742188 95.300781 -17.601562 86.28125 -9.625 C 77.257812 -1.644531 65.8125 2.34375 51.9375 2.34375 C 37.539062 2.34375 25.882812 -1.617188 16.96875 -9.546875 Z M 38.40625 -53.65625 C 34.8125 -50.113281 33.015625 -45.578125 33.015625 -40.046875 C 33.015625 -34.515625 34.734375 -30.003906 38.171875 -26.515625 C 41.609375 -23.023438 46.144531 -21.28125 51.78125 -21.28125 C 57.207031 -21.28125 61.664062 -23.050781 65.15625 -26.59375 C 68.644531 -30.132812 70.390625 -34.617188 70.390625 -40.046875 C 70.390625 -45.578125 68.59375 -50.113281 65 -53.65625 C 61.40625 -57.207031 57 -58.984375 51.78125 -58.984375 C 46.457031 -58.984375 42 -57.207031 38.40625 -53.65625 Z M 38.40625 -53.65625 "/></g></g></g><g fill="#ffffff" fill-opacity="1"><g transform="translate(214.3057, 140.433708)"><g><path d="M 9.390625 0 L 9.390625 -80.25 L 37.078125 -80.25 L 37.078125 -68.671875 L 37.390625 -68.671875 C 37.597656 -69.085938 37.9375 -69.609375 38.40625 -70.234375 C 38.875 -70.859375 39.890625 -71.953125 41.453125 -73.515625 C 43.015625 -75.085938 44.679688 -76.5 46.453125 -77.75 C 48.234375 -79 50.53125 -80.117188 53.34375 -81.109375 C 56.15625 -82.097656 59.023438 -82.59375 61.953125 -82.59375 C 64.972656 -82.59375 67.941406 -82.175781 70.859375 -81.34375 C 73.785156 -80.507812 75.925781 -79.675781 77.28125 -78.84375 L 79.46875 -77.59375 L 67.890625 -54.125 C 64.453125 -57.039062 59.65625 -58.5 53.5 -58.5 C 50.164062 -58.5 47.296875 -57.769531 44.890625 -56.3125 C 42.492188 -54.851562 40.800781 -53.082031 39.8125 -51 C 38.820312 -48.914062 38.117188 -47.140625 37.703125 -45.671875 C 37.285156 -44.210938 37.078125 -43.066406 37.078125 -42.234375 L 37.078125 0 Z M 9.390625 0 "/></g></g></g><g fill="#ffffff" fill-opacity="1"><g transform="translate(288.297185, 140.433708)"><g><path d="M 9.390625 0 L 9.390625 -80.25 L 37.078125 -80.25 L 37.078125 -68.671875 L 37.390625 -68.671875 C 37.597656 -69.085938 37.9375 -69.609375 38.40625 -70.234375 C 38.875 -70.859375 39.890625 -71.953125 41.453125 -73.515625 C 43.015625 -75.085938 44.679688 -76.5 46.453125 -77.75 C 48.234375 -79 50.53125 -80.117188 53.34375 -81.109375 C 56.15625 -82.097656 59.023438 -82.59375 61.953125 -82.59375 C 64.972656 -82.59375 67.941406 -82.175781 70.859375 -81.34375 C 73.785156 -80.507812 75.925781 -79.675781 77.28125 -78.84375 L 79.46875 -77.59375 L 67.890625 -54.125 C 64.453125 -57.039062 59.65625 -58.5 53.5 -58.5 C 50.164062 -58.5 47.296875 -57.769531 44.890625 -56.3125 C 42.492188 -54.851562 40.800781 -53.082031 39.8125 -51 C 38.820312 -48.914062 38.117188 -47.140625 37.703125 -45.671875 C 37.285156 -44.210938 37.078125 -43.066406 37.078125 -42.234375 L 37.078125 0 Z M 9.390625 0 "/></g></g></g><g fill="#ffffff" fill-opacity="1"><g transform="translate(361.349998, 140.433708)"><g><path d="M 90.578125 -36.296875 L 32.375 -36.296875 C 32.375 -30.660156 34.195312 -26.488281 37.84375 -23.78125 C 41.5 -21.070312 45.46875 -19.71875 49.75 -19.71875 C 54.226562 -19.71875 57.769531 -20.316406 60.375 -21.515625 C 62.988281 -22.710938 65.960938 -25.082031 69.296875 -28.625 L 89.328125 -18.609375 C 80.984375 -4.640625 67.113281 2.34375 47.71875 2.34375 C 35.613281 2.34375 25.234375 -1.800781 16.578125 -10.09375 C 7.921875 -18.382812 3.59375 -28.367188 3.59375 -40.046875 C 3.59375 -51.722656 7.921875 -61.734375 16.578125 -70.078125 C 25.234375 -78.421875 35.613281 -82.59375 47.71875 -82.59375 C 60.4375 -82.59375 70.785156 -78.914062 78.765625 -71.5625 C 86.742188 -64.21875 90.734375 -53.710938 90.734375 -40.046875 C 90.734375 -38.171875 90.679688 -36.921875 90.578125 -36.296875 Z M 33.171875 -51.625 L 63.671875 -51.625 C 63.046875 -55.789062 61.398438 -58.992188 58.734375 -61.234375 C 56.078125 -63.484375 52.664062 -64.609375 48.5 -64.609375 C 43.90625 -64.609375 40.253906 -63.40625 37.546875 -61 C 34.835938 -58.601562 33.378906 -55.476562 33.171875 -51.625 Z M 33.171875 -51.625 "/></g></g></g><g fill="#ff5757" fill-opacity="1"><g transform="translate(451.467329, 140.433708)"><g><path d="M 9.390625 0 L 9.390625 -134.53125 L 37.078125 -134.53125 L 37.078125 0 Z M 9.390625 0 "/></g></g></g><g fill="#ff5757" fill-opacity="1"><g transform="translate(494.016231, 140.433708)"><g><path d="M 14.859375 -9.9375 C 7.347656 -18.125 3.59375 -28.160156 3.59375 -40.046875 C 3.59375 -51.929688 7.347656 -61.992188 14.859375 -70.234375 C 22.367188 -78.472656 31.910156 -82.59375 43.484375 -82.59375 C 54.128906 -82.59375 62.890625 -79.257812 69.765625 -72.59375 L 69.765625 -80.25 L 97.453125 -80.25 L 97.453125 0 L 70.078125 0 L 70.078125 -9.078125 L 69.765625 -9.078125 C 62.890625 -1.460938 54.128906 2.34375 43.484375 2.34375 C 31.910156 2.34375 22.367188 -1.75 14.859375 -9.9375 Z M 38.40625 -53.65625 C 34.8125 -50.113281 33.015625 -45.578125 33.015625 -40.046875 C 33.015625 -34.515625 34.734375 -30.003906 38.171875 -26.515625 C 41.609375 -23.023438 46.144531 -21.28125 51.78125 -21.28125 C 57.207031 -21.28125 61.664062 -23.050781 65.15625 -26.59375 C 68.644531 -30.132812 70.390625 -34.617188 70.390625 -40.046875 C 70.390625 -45.578125 68.59375 -50.113281 65 -53.65625 C 61.40625 -57.207031 57 -58.984375 51.78125 -58.984375 C 46.457031 -58.984375 42 -57.207031 38.40625 -53.65625 Z M 38.40625 -53.65625 "/></g></g></g><g fill="#ff5757" fill-opacity="1"><g transform="translate(595.852292, 140.433708)"><g><path d="M 14.078125 -80.25 L 14.078125 -110.125 L 41.765625 -110.125 L 41.765625 -80.25 L 58.65625 -80.25 L 58.65625 -59.140625 L 41.765625 -59.140625 L 41.765625 -33.640625 C 41.765625 -26.234375 43.851562 -22.53125 48.03125 -22.53125 C 49.070312 -22.53125 50.164062 -22.738281 51.3125 -23.15625 C 52.457031 -23.570312 53.34375 -23.988281 53.96875 -24.40625 L 54.90625 -25.03125 L 61.796875 -2.65625 C 55.847656 0.675781 49.066406 2.34375 41.453125 2.34375 C 36.242188 2.34375 31.757812 1.429688 28 -0.390625 C 24.25 -2.210938 21.40625 -4.660156 19.46875 -7.734375 C 17.539062 -10.816406 16.160156 -14.050781 15.328125 -17.4375 C 14.492188 -20.832031 14.078125 -24.457031 14.078125 -28.3125 L 14.078125 -59.140625 L 2.5 -59.140625 L 2.5 -80.25 Z M 14.078125 -80.25 "/></g></g></g><g fill="#ff5757" fill-opacity="1"><g transform="translate(653.731399, 140.433708)"><g><path d="M 90.578125 -36.296875 L 32.375 -36.296875 C 32.375 -30.660156 34.195312 -26.488281 37.84375 -23.78125 C 41.5 -21.070312 45.46875 -19.71875 49.75 -19.71875 C 54.226562 -19.71875 57.769531 -20.316406 60.375 -21.515625 C 62.988281 -22.710938 65.960938 -25.082031 69.296875 -28.625 L 89.328125 -18.609375 C 80.984375 -4.640625 67.113281 2.34375 47.71875 2.34375 C 35.613281 2.34375 25.234375 -1.800781 16.578125 -10.09375 C 7.921875 -18.382812 3.59375 -28.367188 3.59375 -40.046875 C 3.59375 -51.722656 7.921875 -61.734375 16.578125 -70.078125 C 25.234375 -78.421875 35.613281 -82.59375 47.71875 -82.59375 C 60.4375 -82.59375 70.785156 -78.914062 78.765625 -71.5625 C 86.742188 -64.21875 90.734375 -53.710938 90.734375 -40.046875 C 90.734375 -38.171875 90.679688 -36.921875 90.578125 -36.296875 Z M 33.171875 -51.625 L 63.671875 -51.625 C 63.046875 -55.789062 61.398438 -58.992188 58.734375 -61.234375 C 56.078125 -63.484375 52.664062 -64.609375 48.5 -64.609375 C 43.90625 -64.609375 40.253906 -63.40625 37.546875 -61 C 34.835938 -58.601562 33.378906 -55.476562 33.171875 -51.625 Z M 33.171875 -51.625 "/></g></g></g><g fill="#ff5757" fill-opacity="1"><g transform="translate(744.148074, 140.433708)"><g><path d="M 27.21875 -33.484375 C 32.226562 -33.484375 36.476562 -31.734375 39.96875 -28.234375 C 43.457031 -24.742188 45.203125 -20.492188 45.203125 -15.484375 C 45.203125 -10.585938 43.457031 -6.390625 39.96875 -2.890625 C 36.476562 0.597656 32.226562 2.34375 27.21875 2.34375 C 22.320312 2.34375 18.125 0.597656 14.625 -2.890625 C 11.132812 -6.390625 9.390625 -10.585938 9.390625 -15.484375 C 9.390625 -20.492188 11.132812 -24.742188 14.625 -28.234375 C 18.125 -31.734375 22.320312 -33.484375 27.21875 -33.484375 Z M 27.21875 -33.484375 "/></g></g></g></g></g></svg>
