
<svg xmlns="http://www.w3.org/2000/svg" xmlns:xlink="http://www.w3.org/1999/xlink" width="1002" zoomAndPan="magnify" viewBox="0 0 751.5 253.499997" height="338" preserveAspectRatio="xMidYMid meet" version="1.0"><defs><g/><clipPath id="57627c9665"><path d="M 428.324219 116.335938 L 432.066406 116.335938 L 432.066406 125.269531 L 428.324219 125.269531 Z M 428.324219 116.335938 " clip-rule="nonzero"/></clipPath><clipPath id="bd1cc655b2"><path d="M 0.324219 0.335938 L 4.066406 0.335938 L 4.066406 9.269531 L 0.324219 9.269531 Z M 0.324219 0.335938 " clip-rule="nonzero"/></clipPath><clipPath id="f30575fd69"><rect x="0" width="5" y="0" height="10"/></clipPath></defs><g clip-path="url(#57627c9665)"><g transform="matrix(1, 0, 0, 1, 428, 116)"><g clip-path="url(#f30575fd69)"><g clip-path="url(#bd1cc655b2)"><path fill="#ff5a57" d="M 0.324219 0.335938 L 4.070312 0.335938 L 4.070312 9.269531 L 0.324219 9.269531 Z M 0.324219 0.335938 " fill-opacity="1" fill-rule="nonzero"/></g></g></g></g><g fill="#29282e" fill-opacity="0.302"><g transform="translate(62.609027, 165.152296)"><g><path d="M 62.328125 -21.234375 C 65.910156 -21.234375 69.382812 -21.773438 72.75 -22.859375 C 76.125 -23.941406 78.601562 -24.984375 80.1875 -25.984375 L 82.5625 -27.609375 L 92.5625 -7.625 C 92.226562 -7.375 91.769531 -7.039062 91.1875 -6.625 C 90.601562 -6.207031 89.25 -5.4375 87.125 -4.3125 C 85 -3.1875 82.726562 -2.207031 80.3125 -1.375 C 77.894531 -0.539062 74.726562 0.207031 70.8125 0.875 C 66.90625 1.539062 62.867188 1.875 58.703125 1.875 C 49.128906 1.875 40.050781 -0.472656 31.46875 -5.171875 C 22.894531 -9.878906 15.984375 -16.351562 10.734375 -24.59375 C 5.492188 -32.84375 2.875 -41.757812 2.875 -51.34375 C 2.875 -58.582031 4.410156 -65.53125 7.484375 -72.1875 C 10.566406 -78.851562 14.671875 -84.554688 19.796875 -89.296875 C 24.921875 -94.046875 30.894531 -97.835938 37.71875 -100.671875 C 44.550781 -103.503906 51.546875 -104.921875 58.703125 -104.921875 C 65.367188 -104.921875 71.507812 -104.128906 77.125 -102.546875 C 82.75 -100.960938 86.726562 -99.378906 89.0625 -97.796875 L 92.5625 -95.421875 L 82.5625 -75.4375 C 81.976562 -75.9375 81.101562 -76.539062 79.9375 -77.25 C 78.769531 -77.957031 76.4375 -78.894531 72.9375 -80.0625 C 69.445312 -81.226562 65.910156 -81.8125 62.328125 -81.8125 C 56.660156 -81.8125 51.578125 -80.894531 47.078125 -79.0625 C 42.585938 -77.226562 39.03125 -74.8125 36.40625 -71.8125 C 33.78125 -68.820312 31.78125 -65.597656 30.40625 -62.140625 C 29.039062 -58.679688 28.359375 -55.164062 28.359375 -51.59375 C 28.359375 -43.757812 31.289062 -36.738281 37.15625 -30.53125 C 43.03125 -24.332031 51.421875 -21.234375 62.328125 -21.234375 Z M 62.328125 -21.234375 "/></g></g></g><g fill="#29282e" fill-opacity="0.302"><g transform="translate(153.534723, 165.152296)"><g><path d="M 13.546875 -7.609375 C 6.429688 -13.941406 2.875 -22.0625 2.875 -31.96875 C 2.875 -41.882812 6.578125 -50.023438 13.984375 -56.390625 C 21.398438 -62.765625 30.5625 -65.953125 41.46875 -65.953125 C 52.207031 -65.953125 61.257812 -62.742188 68.625 -56.328125 C 76 -49.921875 79.6875 -41.800781 79.6875 -31.96875 C 79.6875 -22.144531 76.082031 -14.046875 68.875 -7.671875 C 61.675781 -1.304688 52.539062 1.875 41.46875 1.875 C 29.976562 1.875 20.671875 -1.285156 13.546875 -7.609375 Z M 30.65625 -42.84375 C 27.789062 -40.007812 26.359375 -36.382812 26.359375 -31.96875 C 26.359375 -27.5625 27.726562 -23.960938 30.46875 -21.171875 C 33.21875 -18.378906 36.84375 -16.984375 41.34375 -16.984375 C 45.675781 -16.984375 49.234375 -18.398438 52.015625 -21.234375 C 54.804688 -24.066406 56.203125 -27.644531 56.203125 -31.96875 C 56.203125 -36.382812 54.765625 -40.007812 51.890625 -42.84375 C 49.023438 -45.675781 45.507812 -47.09375 41.34375 -47.09375 C 37.09375 -47.09375 33.53125 -45.675781 30.65625 -42.84375 Z M 30.65625 -42.84375 "/></g></g></g><g fill="#29282e" fill-opacity="0.302"><g transform="translate(232.719966, 165.152296)"><g><path d="M 7.5 0 L 7.5 -64.078125 L 29.609375 -64.078125 L 29.609375 -54.828125 L 29.859375 -54.828125 C 30.023438 -55.160156 30.296875 -55.578125 30.671875 -56.078125 C 31.046875 -56.578125 31.851562 -57.453125 33.09375 -58.703125 C 34.34375 -59.953125 35.675781 -61.078125 37.09375 -62.078125 C 38.507812 -63.078125 40.34375 -63.972656 42.59375 -64.765625 C 44.84375 -65.554688 47.132812 -65.953125 49.46875 -65.953125 C 51.875 -65.953125 54.242188 -65.617188 56.578125 -64.953125 C 58.910156 -64.285156 60.617188 -63.617188 61.703125 -62.953125 L 63.453125 -61.953125 L 54.203125 -43.21875 C 51.460938 -45.550781 47.632812 -46.71875 42.71875 -46.71875 C 40.050781 -46.71875 37.757812 -46.132812 35.84375 -44.96875 C 33.925781 -43.800781 32.570312 -42.382812 31.78125 -40.71875 C 31 -39.050781 30.441406 -37.632812 30.109375 -36.46875 C 29.773438 -35.300781 29.609375 -34.382812 29.609375 -33.71875 L 29.609375 0 Z M 7.5 0 "/></g></g></g><g fill="#29282e" fill-opacity="0.302"><g transform="translate(291.796632, 165.152296)"><g><path d="M 7.5 0 L 7.5 -64.078125 L 29.609375 -64.078125 L 29.609375 -54.828125 L 29.859375 -54.828125 C 30.023438 -55.160156 30.296875 -55.578125 30.671875 -56.078125 C 31.046875 -56.578125 31.851562 -57.453125 33.09375 -58.703125 C 34.34375 -59.953125 35.675781 -61.078125 37.09375 -62.078125 C 38.507812 -63.078125 40.34375 -63.972656 42.59375 -64.765625 C 44.84375 -65.554688 47.132812 -65.953125 49.46875 -65.953125 C 51.875 -65.953125 54.242188 -65.617188 56.578125 -64.953125 C 58.910156 -64.285156 60.617188 -63.617188 61.703125 -62.953125 L 63.453125 -61.953125 L 54.203125 -43.21875 C 51.460938 -45.550781 47.632812 -46.71875 42.71875 -46.71875 C 40.050781 -46.71875 37.757812 -46.132812 35.84375 -44.96875 C 33.925781 -43.800781 32.570312 -42.382812 31.78125 -40.71875 C 31 -39.050781 30.441406 -37.632812 30.109375 -36.46875 C 29.773438 -35.300781 29.609375 -34.382812 29.609375 -33.71875 L 29.609375 0 Z M 7.5 0 "/></g></g></g><g fill="#29282e" fill-opacity="0.302"><g transform="translate(350.123838, 165.152296)"><g><path d="M 72.328125 -28.984375 L 25.859375 -28.984375 C 25.859375 -24.484375 27.3125 -21.148438 30.21875 -18.984375 C 33.132812 -16.816406 36.300781 -15.734375 39.71875 -15.734375 C 43.300781 -15.734375 46.132812 -16.210938 48.21875 -17.171875 C 50.300781 -18.128906 52.671875 -20.023438 55.328125 -22.859375 L 71.328125 -14.859375 C 64.660156 -3.703125 53.582031 1.875 38.09375 1.875 C 28.4375 1.875 20.148438 -1.429688 13.234375 -8.046875 C 6.328125 -14.671875 2.875 -22.644531 2.875 -31.96875 C 2.875 -41.300781 6.328125 -49.296875 13.234375 -55.953125 C 20.148438 -62.617188 28.4375 -65.953125 38.09375 -65.953125 C 48.25 -65.953125 56.515625 -63.015625 62.890625 -57.140625 C 69.265625 -51.273438 72.453125 -42.882812 72.453125 -31.96875 C 72.453125 -30.476562 72.410156 -29.484375 72.328125 -28.984375 Z M 26.484375 -41.21875 L 50.84375 -41.21875 C 50.34375 -44.550781 49.03125 -47.113281 46.90625 -48.90625 C 44.78125 -50.695312 42.050781 -51.59375 38.71875 -51.59375 C 35.050781 -51.59375 32.132812 -50.632812 29.96875 -48.71875 C 27.8125 -46.800781 26.648438 -44.300781 26.484375 -41.21875 Z M 26.484375 -41.21875 "/></g></g></g><g fill="#29282e" fill-opacity="0.502"><g transform="translate(57.088902, 159.632171)"><g><path d="M 62.328125 -21.234375 C 65.910156 -21.234375 69.382812 -21.773438 72.75 -22.859375 C 76.125 -23.941406 78.601562 -24.984375 80.1875 -25.984375 L 82.5625 -27.609375 L 92.5625 -7.625 C 92.226562 -7.375 91.769531 -7.039062 91.1875 -6.625 C 90.601562 -6.207031 89.25 -5.4375 87.125 -4.3125 C 85 -3.1875 82.726562 -2.207031 80.3125 -1.375 C 77.894531 -0.539062 74.726562 0.207031 70.8125 0.875 C 66.90625 1.539062 62.867188 1.875 58.703125 1.875 C 49.128906 1.875 40.050781 -0.472656 31.46875 -5.171875 C 22.894531 -9.878906 15.984375 -16.351562 10.734375 -24.59375 C 5.492188 -32.84375 2.875 -41.757812 2.875 -51.34375 C 2.875 -58.582031 4.410156 -65.53125 7.484375 -72.1875 C 10.566406 -78.851562 14.671875 -84.554688 19.796875 -89.296875 C 24.921875 -94.046875 30.894531 -97.835938 37.71875 -100.671875 C 44.550781 -103.503906 51.546875 -104.921875 58.703125 -104.921875 C 65.367188 -104.921875 71.507812 -104.128906 77.125 -102.546875 C 82.75 -100.960938 86.726562 -99.378906 89.0625 -97.796875 L 92.5625 -95.421875 L 82.5625 -75.4375 C 81.976562 -75.9375 81.101562 -76.539062 79.9375 -77.25 C 78.769531 -77.957031 76.4375 -78.894531 72.9375 -80.0625 C 69.445312 -81.226562 65.910156 -81.8125 62.328125 -81.8125 C 56.660156 -81.8125 51.578125 -80.894531 47.078125 -79.0625 C 42.585938 -77.226562 39.03125 -74.8125 36.40625 -71.8125 C 33.78125 -68.820312 31.78125 -65.597656 30.40625 -62.140625 C 29.039062 -58.679688 28.359375 -55.164062 28.359375 -51.59375 C 28.359375 -43.757812 31.289062 -36.738281 37.15625 -30.53125 C 43.03125 -24.332031 51.421875 -21.234375 62.328125 -21.234375 Z M 62.328125 -21.234375 "/></g></g></g><g fill="#29282e" fill-opacity="0.502"><g transform="translate(148.014598, 159.632171)"><g><path d="M 13.546875 -7.609375 C 6.429688 -13.941406 2.875 -22.0625 2.875 -31.96875 C 2.875 -41.882812 6.578125 -50.023438 13.984375 -56.390625 C 21.398438 -62.765625 30.5625 -65.953125 41.46875 -65.953125 C 52.207031 -65.953125 61.257812 -62.742188 68.625 -56.328125 C 76 -49.921875 79.6875 -41.800781 79.6875 -31.96875 C 79.6875 -22.144531 76.082031 -14.046875 68.875 -7.671875 C 61.675781 -1.304688 52.539062 1.875 41.46875 1.875 C 29.976562 1.875 20.671875 -1.285156 13.546875 -7.609375 Z M 30.65625 -42.84375 C 27.789062 -40.007812 26.359375 -36.382812 26.359375 -31.96875 C 26.359375 -27.5625 27.726562 -23.960938 30.46875 -21.171875 C 33.21875 -18.378906 36.84375 -16.984375 41.34375 -16.984375 C 45.675781 -16.984375 49.234375 -18.398438 52.015625 -21.234375 C 54.804688 -24.066406 56.203125 -27.644531 56.203125 -31.96875 C 56.203125 -36.382812 54.765625 -40.007812 51.890625 -42.84375 C 49.023438 -45.675781 45.507812 -47.09375 41.34375 -47.09375 C 37.09375 -47.09375 33.53125 -45.675781 30.65625 -42.84375 Z M 30.65625 -42.84375 "/></g></g></g><g fill="#29282e" fill-opacity="0.502"><g transform="translate(227.19984, 159.632171)"><g><path d="M 7.5 0 L 7.5 -64.078125 L 29.609375 -64.078125 L 29.609375 -54.828125 L 29.859375 -54.828125 C 30.023438 -55.160156 30.296875 -55.578125 30.671875 -56.078125 C 31.046875 -56.578125 31.851562 -57.453125 33.09375 -58.703125 C 34.34375 -59.953125 35.675781 -61.078125 37.09375 -62.078125 C 38.507812 -63.078125 40.34375 -63.972656 42.59375 -64.765625 C 44.84375 -65.554688 47.132812 -65.953125 49.46875 -65.953125 C 51.875 -65.953125 54.242188 -65.617188 56.578125 -64.953125 C 58.910156 -64.285156 60.617188 -63.617188 61.703125 -62.953125 L 63.453125 -61.953125 L 54.203125 -43.21875 C 51.460938 -45.550781 47.632812 -46.71875 42.71875 -46.71875 C 40.050781 -46.71875 37.757812 -46.132812 35.84375 -44.96875 C 33.925781 -43.800781 32.570312 -42.382812 31.78125 -40.71875 C 31 -39.050781 30.441406 -37.632812 30.109375 -36.46875 C 29.773438 -35.300781 29.609375 -34.382812 29.609375 -33.71875 L 29.609375 0 Z M 7.5 0 "/></g></g></g><g fill="#29282e" fill-opacity="0.502"><g transform="translate(286.276506, 159.632171)"><g><path d="M 7.5 0 L 7.5 -64.078125 L 29.609375 -64.078125 L 29.609375 -54.828125 L 29.859375 -54.828125 C 30.023438 -55.160156 30.296875 -55.578125 30.671875 -56.078125 C 31.046875 -56.578125 31.851562 -57.453125 33.09375 -58.703125 C 34.34375 -59.953125 35.675781 -61.078125 37.09375 -62.078125 C 38.507812 -63.078125 40.34375 -63.972656 42.59375 -64.765625 C 44.84375 -65.554688 47.132812 -65.953125 49.46875 -65.953125 C 51.875 -65.953125 54.242188 -65.617188 56.578125 -64.953125 C 58.910156 -64.285156 60.617188 -63.617188 61.703125 -62.953125 L 63.453125 -61.953125 L 54.203125 -43.21875 C 51.460938 -45.550781 47.632812 -46.71875 42.71875 -46.71875 C 40.050781 -46.71875 37.757812 -46.132812 35.84375 -44.96875 C 33.925781 -43.800781 32.570312 -42.382812 31.78125 -40.71875 C 31 -39.050781 30.441406 -37.632812 30.109375 -36.46875 C 29.773438 -35.300781 29.609375 -34.382812 29.609375 -33.71875 L 29.609375 0 Z M 7.5 0 "/></g></g></g><g fill="#29282e" fill-opacity="0.502"><g transform="translate(344.603713, 159.632171)"><g><path d="M 72.328125 -28.984375 L 25.859375 -28.984375 C 25.859375 -24.484375 27.3125 -21.148438 30.21875 -18.984375 C 33.132812 -16.816406 36.300781 -15.734375 39.71875 -15.734375 C 43.300781 -15.734375 46.132812 -16.210938 48.21875 -17.171875 C 50.300781 -18.128906 52.671875 -20.023438 55.328125 -22.859375 L 71.328125 -14.859375 C 64.660156 -3.703125 53.582031 1.875 38.09375 1.875 C 28.4375 1.875 20.148438 -1.429688 13.234375 -8.046875 C 6.328125 -14.671875 2.875 -22.644531 2.875 -31.96875 C 2.875 -41.300781 6.328125 -49.296875 13.234375 -55.953125 C 20.148438 -62.617188 28.4375 -65.953125 38.09375 -65.953125 C 48.25 -65.953125 56.515625 -63.015625 62.890625 -57.140625 C 69.265625 -51.273438 72.453125 -42.882812 72.453125 -31.96875 C 72.453125 -30.476562 72.410156 -29.484375 72.328125 -28.984375 Z M 26.484375 -41.21875 L 50.84375 -41.21875 C 50.34375 -44.550781 49.03125 -47.113281 46.90625 -48.90625 C 44.78125 -50.695312 42.050781 -51.59375 38.71875 -51.59375 C 35.050781 -51.59375 32.132812 -50.632812 29.96875 -48.71875 C 27.8125 -46.800781 26.648438 -44.300781 26.484375 -41.21875 Z M 26.484375 -41.21875 "/></g></g></g><g fill="#29282e" fill-opacity="0.302"><g transform="translate(422.075786, 165.152296)"><g><path d="M 7.5 0 L 7.5 -107.421875 L 29.609375 -107.421875 L 29.609375 0 Z M 7.5 0 "/></g></g></g><g fill="#29282e" fill-opacity="0.302"><g transform="translate(456.047901, 165.152296)"><g><path d="M 11.859375 -7.921875 C 5.867188 -14.460938 2.875 -22.476562 2.875 -31.96875 C 2.875 -41.46875 5.867188 -49.503906 11.859375 -56.078125 C 17.859375 -62.660156 25.476562 -65.953125 34.71875 -65.953125 C 43.21875 -65.953125 50.210938 -63.285156 55.703125 -57.953125 L 55.703125 -64.078125 L 77.8125 -64.078125 L 77.8125 0 L 55.953125 0 L 55.953125 -7.25 L 55.703125 -7.25 C 50.210938 -1.164062 43.21875 1.875 34.71875 1.875 C 25.476562 1.875 17.859375 -1.390625 11.859375 -7.921875 Z M 30.65625 -42.84375 C 27.789062 -40.007812 26.359375 -36.382812 26.359375 -31.96875 C 26.359375 -27.5625 27.726562 -23.960938 30.46875 -21.171875 C 33.21875 -18.378906 36.84375 -16.984375 41.34375 -16.984375 C 45.675781 -16.984375 49.234375 -18.398438 52.015625 -21.234375 C 54.804688 -24.066406 56.203125 -27.644531 56.203125 -31.96875 C 56.203125 -36.382812 54.765625 -40.007812 51.890625 -42.84375 C 49.023438 -45.675781 45.507812 -47.09375 41.34375 -47.09375 C 37.09375 -47.09375 33.53125 -45.675781 30.65625 -42.84375 Z M 30.65625 -42.84375 "/></g></g></g><g fill="#29282e" fill-opacity="0.302"><g transform="translate(537.356378, 165.152296)"><g><path d="M 11.234375 -64.078125 L 11.234375 -87.9375 L 33.34375 -87.9375 L 33.34375 -64.078125 L 46.84375 -64.078125 L 46.84375 -47.21875 L 33.34375 -47.21875 L 33.34375 -26.859375 C 33.34375 -20.941406 35.007812 -17.984375 38.34375 -17.984375 C 39.175781 -17.984375 40.050781 -18.148438 40.96875 -18.484375 C 41.882812 -18.816406 42.59375 -19.148438 43.09375 -19.484375 L 43.84375 -19.984375 L 49.34375 -2.125 C 44.59375 0.539062 39.175781 1.875 33.09375 1.875 C 28.9375 1.875 25.359375 1.144531 22.359375 -0.3125 C 19.359375 -1.769531 17.085938 -3.726562 15.546875 -6.1875 C 14.003906 -8.644531 12.898438 -11.222656 12.234375 -13.921875 C 11.566406 -16.628906 11.234375 -19.523438 11.234375 -22.609375 L 11.234375 -47.21875 L 2 -47.21875 L 2 -64.078125 Z M 11.234375 -64.078125 "/></g></g></g><g fill="#29282e" fill-opacity="0.302"><g transform="translate(583.568515, 165.152296)"><g><path d="M 72.328125 -28.984375 L 25.859375 -28.984375 C 25.859375 -24.484375 27.3125 -21.148438 30.21875 -18.984375 C 33.132812 -16.816406 36.300781 -15.734375 39.71875 -15.734375 C 43.300781 -15.734375 46.132812 -16.210938 48.21875 -17.171875 C 50.300781 -18.128906 52.671875 -20.023438 55.328125 -22.859375 L 71.328125 -14.859375 C 64.660156 -3.703125 53.582031 1.875 38.09375 1.875 C 28.4375 1.875 20.148438 -1.429688 13.234375 -8.046875 C 6.328125 -14.671875 2.875 -22.644531 2.875 -31.96875 C 2.875 -41.300781 6.328125 -49.296875 13.234375 -55.953125 C 20.148438 -62.617188 28.4375 -65.953125 38.09375 -65.953125 C 48.25 -65.953125 56.515625 -63.015625 62.890625 -57.140625 C 69.265625 -51.273438 72.453125 -42.882812 72.453125 -31.96875 C 72.453125 -30.476562 72.410156 -29.484375 72.328125 -28.984375 Z M 26.484375 -41.21875 L 50.84375 -41.21875 C 50.34375 -44.550781 49.03125 -47.113281 46.90625 -48.90625 C 44.78125 -50.695312 42.050781 -51.59375 38.71875 -51.59375 C 35.050781 -51.59375 32.132812 -50.632812 29.96875 -48.71875 C 27.8125 -46.800781 26.648438 -44.300781 26.484375 -41.21875 Z M 26.484375 -41.21875 "/></g></g></g><g fill="#29282e" fill-opacity="0.302"><g transform="translate(655.759466, 165.152296)"><g><path d="M 21.734375 -26.734375 C 25.734375 -26.734375 29.125 -25.335938 31.90625 -22.546875 C 34.695312 -19.753906 36.09375 -16.359375 36.09375 -12.359375 C 36.09375 -8.453125 34.695312 -5.101562 31.90625 -2.3125 C 29.125 0.476562 25.734375 1.875 21.734375 1.875 C 17.816406 1.875 14.460938 0.476562 11.671875 -2.3125 C 8.890625 -5.101562 7.5 -8.453125 7.5 -12.359375 C 7.5 -16.359375 8.890625 -19.753906 11.671875 -22.546875 C 14.460938 -25.335938 17.816406 -26.734375 21.734375 -26.734375 Z M 21.734375 -26.734375 "/></g></g></g><g fill="#29282e" fill-opacity="0.502"><g transform="translate(416.55566, 159.632171)"><g><path d="M 7.5 0 L 7.5 -107.421875 L 29.609375 -107.421875 L 29.609375 0 Z M 7.5 0 "/></g></g></g><g fill="#29282e" fill-opacity="0.502"><g transform="translate(450.527776, 159.632171)"><g><path d="M 11.859375 -7.921875 C 5.867188 -14.460938 2.875 -22.476562 2.875 -31.96875 C 2.875 -41.46875 5.867188 -49.503906 11.859375 -56.078125 C 17.859375 -62.660156 25.476562 -65.953125 34.71875 -65.953125 C 43.21875 -65.953125 50.210938 -63.285156 55.703125 -57.953125 L 55.703125 -64.078125 L 77.8125 -64.078125 L 77.8125 0 L 55.953125 0 L 55.953125 -7.25 L 55.703125 -7.25 C 50.210938 -1.164062 43.21875 1.875 34.71875 1.875 C 25.476562 1.875 17.859375 -1.390625 11.859375 -7.921875 Z M 30.65625 -42.84375 C 27.789062 -40.007812 26.359375 -36.382812 26.359375 -31.96875 C 26.359375 -27.5625 27.726562 -23.960938 30.46875 -21.171875 C 33.21875 -18.378906 36.84375 -16.984375 41.34375 -16.984375 C 45.675781 -16.984375 49.234375 -18.398438 52.015625 -21.234375 C 54.804688 -24.066406 56.203125 -27.644531 56.203125 -31.96875 C 56.203125 -36.382812 54.765625 -40.007812 51.890625 -42.84375 C 49.023438 -45.675781 45.507812 -47.09375 41.34375 -47.09375 C 37.09375 -47.09375 33.53125 -45.675781 30.65625 -42.84375 Z M 30.65625 -42.84375 "/></g></g></g><g fill="#29282e" fill-opacity="0.502"><g transform="translate(531.836253, 159.632171)"><g><path d="M 11.234375 -64.078125 L 11.234375 -87.9375 L 33.34375 -87.9375 L 33.34375 -64.078125 L 46.84375 -64.078125 L 46.84375 -47.21875 L 33.34375 -47.21875 L 33.34375 -26.859375 C 33.34375 -20.941406 35.007812 -17.984375 38.34375 -17.984375 C 39.175781 -17.984375 40.050781 -18.148438 40.96875 -18.484375 C 41.882812 -18.816406 42.59375 -19.148438 43.09375 -19.484375 L 43.84375 -19.984375 L 49.34375 -2.125 C 44.59375 0.539062 39.175781 1.875 33.09375 1.875 C 28.9375 1.875 25.359375 1.144531 22.359375 -0.3125 C 19.359375 -1.769531 17.085938 -3.726562 15.546875 -6.1875 C 14.003906 -8.644531 12.898438 -11.222656 12.234375 -13.921875 C 11.566406 -16.628906 11.234375 -19.523438 11.234375 -22.609375 L 11.234375 -47.21875 L 2 -47.21875 L 2 -64.078125 Z M 11.234375 -64.078125 "/></g></g></g><g fill="#29282e" fill-opacity="0.502"><g transform="translate(578.04839, 159.632171)"><g><path d="M 72.328125 -28.984375 L 25.859375 -28.984375 C 25.859375 -24.484375 27.3125 -21.148438 30.21875 -18.984375 C 33.132812 -16.816406 36.300781 -15.734375 39.71875 -15.734375 C 43.300781 -15.734375 46.132812 -16.210938 48.21875 -17.171875 C 50.300781 -18.128906 52.671875 -20.023438 55.328125 -22.859375 L 71.328125 -14.859375 C 64.660156 -3.703125 53.582031 1.875 38.09375 1.875 C 28.4375 1.875 20.148438 -1.429688 13.234375 -8.046875 C 6.328125 -14.671875 2.875 -22.644531 2.875 -31.96875 C 2.875 -41.300781 6.328125 -49.296875 13.234375 -55.953125 C 20.148438 -62.617188 28.4375 -65.953125 38.09375 -65.953125 C 48.25 -65.953125 56.515625 -63.015625 62.890625 -57.140625 C 69.265625 -51.273438 72.453125 -42.882812 72.453125 -31.96875 C 72.453125 -30.476562 72.410156 -29.484375 72.328125 -28.984375 Z M 26.484375 -41.21875 L 50.84375 -41.21875 C 50.34375 -44.550781 49.03125 -47.113281 46.90625 -48.90625 C 44.78125 -50.695312 42.050781 -51.59375 38.71875 -51.59375 C 35.050781 -51.59375 32.132812 -50.632812 29.96875 -48.71875 C 27.8125 -46.800781 26.648438 -44.300781 26.484375 -41.21875 Z M 26.484375 -41.21875 "/></g></g></g><g fill="#29282e" fill-opacity="0.502"><g transform="translate(650.239341, 159.632171)"><g><path d="M 21.734375 -26.734375 C 25.734375 -26.734375 29.125 -25.335938 31.90625 -22.546875 C 34.695312 -19.753906 36.09375 -16.359375 36.09375 -12.359375 C 36.09375 -8.453125 34.695312 -5.101562 31.90625 -2.3125 C 29.125 0.476562 25.734375 1.875 21.734375 1.875 C 17.816406 1.875 14.460938 0.476562 11.671875 -2.3125 C 8.890625 -5.101562 7.5 -8.453125 7.5 -12.359375 C 7.5 -16.359375 8.890625 -19.753906 11.671875 -22.546875 C 14.460938 -25.335938 17.816406 -26.734375 21.734375 -26.734375 Z M 21.734375 -26.734375 "/></g></g></g><g fill="#29282e" fill-opacity="1"><g transform="translate(51.568778, 154.112048)"><g><path d="M 62.328125 -21.234375 C 65.910156 -21.234375 69.382812 -21.773438 72.75 -22.859375 C 76.125 -23.941406 78.601562 -24.984375 80.1875 -25.984375 L 82.5625 -27.609375 L 92.5625 -7.625 C 92.226562 -7.375 91.769531 -7.039062 91.1875 -6.625 C 90.601562 -6.207031 89.25 -5.4375 87.125 -4.3125 C 85 -3.1875 82.726562 -2.207031 80.3125 -1.375 C 77.894531 -0.539062 74.726562 0.207031 70.8125 0.875 C 66.90625 1.539062 62.867188 1.875 58.703125 1.875 C 49.128906 1.875 40.050781 -0.472656 31.46875 -5.171875 C 22.894531 -9.878906 15.984375 -16.351562 10.734375 -24.59375 C 5.492188 -32.84375 2.875 -41.757812 2.875 -51.34375 C 2.875 -58.582031 4.410156 -65.53125 7.484375 -72.1875 C 10.566406 -78.851562 14.671875 -84.554688 19.796875 -89.296875 C 24.921875 -94.046875 30.894531 -97.835938 37.71875 -100.671875 C 44.550781 -103.503906 51.546875 -104.921875 58.703125 -104.921875 C 65.367188 -104.921875 71.507812 -104.128906 77.125 -102.546875 C 82.75 -100.960938 86.726562 -99.378906 89.0625 -97.796875 L 92.5625 -95.421875 L 82.5625 -75.4375 C 81.976562 -75.9375 81.101562 -76.539062 79.9375 -77.25 C 78.769531 -77.957031 76.4375 -78.894531 72.9375 -80.0625 C 69.445312 -81.226562 65.910156 -81.8125 62.328125 -81.8125 C 56.660156 -81.8125 51.578125 -80.894531 47.078125 -79.0625 C 42.585938 -77.226562 39.03125 -74.8125 36.40625 -71.8125 C 33.78125 -68.820312 31.78125 -65.597656 30.40625 -62.140625 C 29.039062 -58.679688 28.359375 -55.164062 28.359375 -51.59375 C 28.359375 -43.757812 31.289062 -36.738281 37.15625 -30.53125 C 43.03125 -24.332031 51.421875 -21.234375 62.328125 -21.234375 Z M 62.328125 -21.234375 "/></g></g></g><g fill="#29282e" fill-opacity="1"><g transform="translate(142.494475, 154.112048)"><g><path d="M 13.546875 -7.609375 C 6.429688 -13.941406 2.875 -22.0625 2.875 -31.96875 C 2.875 -41.882812 6.578125 -50.023438 13.984375 -56.390625 C 21.398438 -62.765625 30.5625 -65.953125 41.46875 -65.953125 C 52.207031 -65.953125 61.257812 -62.742188 68.625 -56.328125 C 76 -49.921875 79.6875 -41.800781 79.6875 -31.96875 C 79.6875 -22.144531 76.082031 -14.046875 68.875 -7.671875 C 61.675781 -1.304688 52.539062 1.875 41.46875 1.875 C 29.976562 1.875 20.671875 -1.285156 13.546875 -7.609375 Z M 30.65625 -42.84375 C 27.789062 -40.007812 26.359375 -36.382812 26.359375 -31.96875 C 26.359375 -27.5625 27.726562 -23.960938 30.46875 -21.171875 C 33.21875 -18.378906 36.84375 -16.984375 41.34375 -16.984375 C 45.675781 -16.984375 49.234375 -18.398438 52.015625 -21.234375 C 54.804688 -24.066406 56.203125 -27.644531 56.203125 -31.96875 C 56.203125 -36.382812 54.765625 -40.007812 51.890625 -42.84375 C 49.023438 -45.675781 45.507812 -47.09375 41.34375 -47.09375 C 37.09375 -47.09375 33.53125 -45.675781 30.65625 -42.84375 Z M 30.65625 -42.84375 "/></g></g></g><g fill="#29282e" fill-opacity="1"><g transform="translate(221.679717, 154.112048)"><g><path d="M 7.5 0 L 7.5 -64.078125 L 29.609375 -64.078125 L 29.609375 -54.828125 L 29.859375 -54.828125 C 30.023438 -55.160156 30.296875 -55.578125 30.671875 -56.078125 C 31.046875 -56.578125 31.851562 -57.453125 33.09375 -58.703125 C 34.34375 -59.953125 35.675781 -61.078125 37.09375 -62.078125 C 38.507812 -63.078125 40.34375 -63.972656 42.59375 -64.765625 C 44.84375 -65.554688 47.132812 -65.953125 49.46875 -65.953125 C 51.875 -65.953125 54.242188 -65.617188 56.578125 -64.953125 C 58.910156 -64.285156 60.617188 -63.617188 61.703125 -62.953125 L 63.453125 -61.953125 L 54.203125 -43.21875 C 51.460938 -45.550781 47.632812 -46.71875 42.71875 -46.71875 C 40.050781 -46.71875 37.757812 -46.132812 35.84375 -44.96875 C 33.925781 -43.800781 32.570312 -42.382812 31.78125 -40.71875 C 31 -39.050781 30.441406 -37.632812 30.109375 -36.46875 C 29.773438 -35.300781 29.609375 -34.382812 29.609375 -33.71875 L 29.609375 0 Z M 7.5 0 "/></g></g></g><g fill="#29282e" fill-opacity="1"><g transform="translate(280.756383, 154.112048)"><g><path d="M 7.5 0 L 7.5 -64.078125 L 29.609375 -64.078125 L 29.609375 -54.828125 L 29.859375 -54.828125 C 30.023438 -55.160156 30.296875 -55.578125 30.671875 -56.078125 C 31.046875 -56.578125 31.851562 -57.453125 33.09375 -58.703125 C 34.34375 -59.953125 35.675781 -61.078125 37.09375 -62.078125 C 38.507812 -63.078125 40.34375 -63.972656 42.59375 -64.765625 C 44.84375 -65.554688 47.132812 -65.953125 49.46875 -65.953125 C 51.875 -65.953125 54.242188 -65.617188 56.578125 -64.953125 C 58.910156 -64.285156 60.617188 -63.617188 61.703125 -62.953125 L 63.453125 -61.953125 L 54.203125 -43.21875 C 51.460938 -45.550781 47.632812 -46.71875 42.71875 -46.71875 C 40.050781 -46.71875 37.757812 -46.132812 35.84375 -44.96875 C 33.925781 -43.800781 32.570312 -42.382812 31.78125 -40.71875 C 31 -39.050781 30.441406 -37.632812 30.109375 -36.46875 C 29.773438 -35.300781 29.609375 -34.382812 29.609375 -33.71875 L 29.609375 0 Z M 7.5 0 "/></g></g></g><g fill="#29282e" fill-opacity="1"><g transform="translate(339.083589, 154.112048)"><g><path d="M 72.328125 -28.984375 L 25.859375 -28.984375 C 25.859375 -24.484375 27.3125 -21.148438 30.21875 -18.984375 C 33.132812 -16.816406 36.300781 -15.734375 39.71875 -15.734375 C 43.300781 -15.734375 46.132812 -16.210938 48.21875 -17.171875 C 50.300781 -18.128906 52.671875 -20.023438 55.328125 -22.859375 L 71.328125 -14.859375 C 64.660156 -3.703125 53.582031 1.875 38.09375 1.875 C 28.4375 1.875 20.148438 -1.429688 13.234375 -8.046875 C 6.328125 -14.671875 2.875 -22.644531 2.875 -31.96875 C 2.875 -41.300781 6.328125 -49.296875 13.234375 -55.953125 C 20.148438 -62.617188 28.4375 -65.953125 38.09375 -65.953125 C 48.25 -65.953125 56.515625 -63.015625 62.890625 -57.140625 C 69.265625 -51.273438 72.453125 -42.882812 72.453125 -31.96875 C 72.453125 -30.476562 72.410156 -29.484375 72.328125 -28.984375 Z M 26.484375 -41.21875 L 50.84375 -41.21875 C 50.34375 -44.550781 49.03125 -47.113281 46.90625 -48.90625 C 44.78125 -50.695312 42.050781 -51.59375 38.71875 -51.59375 C 35.050781 -51.59375 32.132812 -50.632812 29.96875 -48.71875 C 27.8125 -46.800781 26.648438 -44.300781 26.484375 -41.21875 Z M 26.484375 -41.21875 "/></g></g></g><g fill="#ff5757" fill-opacity="1"><g transform="translate(411.035537, 154.112048)"><g><path d="M 7.5 0 L 7.5 -107.421875 L 29.609375 -107.421875 L 29.609375 0 Z M 7.5 0 "/></g></g></g><g fill="#ff5757" fill-opacity="1"><g transform="translate(445.007653, 154.112048)"><g><path d="M 11.859375 -7.921875 C 5.867188 -14.460938 2.875 -22.476562 2.875 -31.96875 C 2.875 -41.46875 5.867188 -49.503906 11.859375 -56.078125 C 17.859375 -62.660156 25.476562 -65.953125 34.71875 -65.953125 C 43.21875 -65.953125 50.210938 -63.285156 55.703125 -57.953125 L 55.703125 -64.078125 L 77.8125 -64.078125 L 77.8125 0 L 55.953125 0 L 55.953125 -7.25 L 55.703125 -7.25 C 50.210938 -1.164062 43.21875 1.875 34.71875 1.875 C 25.476562 1.875 17.859375 -1.390625 11.859375 -7.921875 Z M 30.65625 -42.84375 C 27.789062 -40.007812 26.359375 -36.382812 26.359375 -31.96875 C 26.359375 -27.5625 27.726562 -23.960938 30.46875 -21.171875 C 33.21875 -18.378906 36.84375 -16.984375 41.34375 -16.984375 C 45.675781 -16.984375 49.234375 -18.398438 52.015625 -21.234375 C 54.804688 -24.066406 56.203125 -27.644531 56.203125 -31.96875 C 56.203125 -36.382812 54.765625 -40.007812 51.890625 -42.84375 C 49.023438 -45.675781 45.507812 -47.09375 41.34375 -47.09375 C 37.09375 -47.09375 33.53125 -45.675781 30.65625 -42.84375 Z M 30.65625 -42.84375 "/></g></g></g><g fill="#ff5757" fill-opacity="1"><g transform="translate(526.316129, 154.112048)"><g><path d="M 11.234375 -64.078125 L 11.234375 -87.9375 L 33.34375 -87.9375 L 33.34375 -64.078125 L 46.84375 -64.078125 L 46.84375 -47.21875 L 33.34375 -47.21875 L 33.34375 -26.859375 C 33.34375 -20.941406 35.007812 -17.984375 38.34375 -17.984375 C 39.175781 -17.984375 40.050781 -18.148438 40.96875 -18.484375 C 41.882812 -18.816406 42.59375 -19.148438 43.09375 -19.484375 L 43.84375 -19.984375 L 49.34375 -2.125 C 44.59375 0.539062 39.175781 1.875 33.09375 1.875 C 28.9375 1.875 25.359375 1.144531 22.359375 -0.3125 C 19.359375 -1.769531 17.085938 -3.726562 15.546875 -6.1875 C 14.003906 -8.644531 12.898438 -11.222656 12.234375 -13.921875 C 11.566406 -16.628906 11.234375 -19.523438 11.234375 -22.609375 L 11.234375 -47.21875 L 2 -47.21875 L 2 -64.078125 Z M 11.234375 -64.078125 "/></g></g></g><g fill="#ff5757" fill-opacity="1"><g transform="translate(572.528267, 154.112048)"><g><path d="M 72.328125 -28.984375 L 25.859375 -28.984375 C 25.859375 -24.484375 27.3125 -21.148438 30.21875 -18.984375 C 33.132812 -16.816406 36.300781 -15.734375 39.71875 -15.734375 C 43.300781 -15.734375 46.132812 -16.210938 48.21875 -17.171875 C 50.300781 -18.128906 52.671875 -20.023438 55.328125 -22.859375 L 71.328125 -14.859375 C 64.660156 -3.703125 53.582031 1.875 38.09375 1.875 C 28.4375 1.875 20.148438 -1.429688 13.234375 -8.046875 C 6.328125 -14.671875 2.875 -22.644531 2.875 -31.96875 C 2.875 -41.300781 6.328125 -49.296875 13.234375 -55.953125 C 20.148438 -62.617188 28.4375 -65.953125 38.09375 -65.953125 C 48.25 -65.953125 56.515625 -63.015625 62.890625 -57.140625 C 69.265625 -51.273438 72.453125 -42.882812 72.453125 -31.96875 C 72.453125 -30.476562 72.410156 -29.484375 72.328125 -28.984375 Z M 26.484375 -41.21875 L 50.84375 -41.21875 C 50.34375 -44.550781 49.03125 -47.113281 46.90625 -48.90625 C 44.78125 -50.695312 42.050781 -51.59375 38.71875 -51.59375 C 35.050781 -51.59375 32.132812 -50.632812 29.96875 -48.71875 C 27.8125 -46.800781 26.648438 -44.300781 26.484375 -41.21875 Z M 26.484375 -41.21875 "/></g></g></g><g fill="#ff5757" fill-opacity="1"><g transform="translate(644.719218, 154.112048)"><g><path d="M 21.734375 -26.734375 C 25.734375 -26.734375 29.125 -25.335938 31.90625 -22.546875 C 34.695312 -19.753906 36.09375 -16.359375 36.09375 -12.359375 C 36.09375 -8.453125 34.695312 -5.101562 31.90625 -2.3125 C 29.125 0.476562 25.734375 1.875 21.734375 1.875 C 17.816406 1.875 14.460938 0.476562 11.671875 -2.3125 C 8.890625 -5.101562 7.5 -8.453125 7.5 -12.359375 C 7.5 -16.359375 8.890625 -19.753906 11.671875 -22.546875 C 14.460938 -25.335938 17.816406 -26.734375 21.734375 -26.734375 Z M 21.734375 -26.734375 "/></g></g></g></svg>
